<mxfile host="app.diagrams.net" agent="Mozilla/5.0 (Macintosh; Intel Mac OS X 10.15; rv:133.0) Gecko/20100101 Firefox/133.0" version="26.0.3" pages="9">
  <diagram name="Page-1" id="jZsZUpvr690R9PqtWvvX">
    <mxGraphModel dx="1514" dy="677" grid="1" gridSize="10" guides="1" tooltips="1" connect="1" arrows="1" fold="1" page="1" pageScale="1" pageWidth="2339" pageHeight="3300" math="0" shadow="0">
      <root>
        <mxCell id="0" />
        <mxCell id="1" parent="0" />
        <mxCell id="wdMxcrK1MPIqSiPF5bQf-6" style="edgeStyle=orthogonalEdgeStyle;rounded=0;orthogonalLoop=1;jettySize=auto;html=1;entryX=0.5;entryY=0;entryDx=0;entryDy=0;" edge="1" parent="1" source="wdMxcrK1MPIqSiPF5bQf-1" target="wdMxcrK1MPIqSiPF5bQf-2">
          <mxGeometry relative="1" as="geometry" />
        </mxCell>
        <mxCell id="wdMxcrK1MPIqSiPF5bQf-7" style="edgeStyle=orthogonalEdgeStyle;rounded=0;orthogonalLoop=1;jettySize=auto;html=1;" edge="1" parent="1" source="wdMxcrK1MPIqSiPF5bQf-1" target="wdMxcrK1MPIqSiPF5bQf-3">
          <mxGeometry relative="1" as="geometry" />
        </mxCell>
        <mxCell id="wdMxcrK1MPIqSiPF5bQf-2" value="Gis User" style="rounded=1;whiteSpace=wrap;html=1;fontSize=21;" vertex="1" parent="1">
          <mxGeometry x="430" y="220" width="120" height="60" as="geometry" />
        </mxCell>
        <mxCell id="wdMxcrK1MPIqSiPF5bQf-8" style="edgeStyle=orthogonalEdgeStyle;rounded=0;orthogonalLoop=1;jettySize=auto;html=1;" edge="1" parent="1" source="wdMxcrK1MPIqSiPF5bQf-3" target="wdMxcrK1MPIqSiPF5bQf-4">
          <mxGeometry relative="1" as="geometry" />
        </mxCell>
        <mxCell id="wdMxcrK1MPIqSiPF5bQf-9" style="edgeStyle=orthogonalEdgeStyle;rounded=0;orthogonalLoop=1;jettySize=auto;html=1;entryX=0.5;entryY=0;entryDx=0;entryDy=0;" edge="1" parent="1" source="wdMxcrK1MPIqSiPF5bQf-3" target="wdMxcrK1MPIqSiPF5bQf-5">
          <mxGeometry relative="1" as="geometry" />
        </mxCell>
        <mxCell id="wdMxcrK1MPIqSiPF5bQf-3" value="Gis Server" style="rounded=1;whiteSpace=wrap;html=1;fontSize=21;" vertex="1" parent="1">
          <mxGeometry x="870" y="210" width="120" height="60" as="geometry" />
        </mxCell>
        <mxCell id="wdMxcrK1MPIqSiPF5bQf-4" value="Portal" style="rounded=1;whiteSpace=wrap;html=1;fontSize=21;" vertex="1" parent="1">
          <mxGeometry x="870" y="370" width="120" height="60" as="geometry" />
        </mxCell>
        <mxCell id="wdMxcrK1MPIqSiPF5bQf-5" value="Web adapter" style="rounded=1;whiteSpace=wrap;html=1;fontSize=21;" vertex="1" parent="1">
          <mxGeometry x="1030" y="370" width="120" height="60" as="geometry" />
        </mxCell>
        <mxCell id="wdMxcrK1MPIqSiPF5bQf-11" style="edgeStyle=orthogonalEdgeStyle;rounded=0;orthogonalLoop=1;jettySize=auto;html=1;entryX=0.5;entryY=1;entryDx=0;entryDy=0;" edge="1" parent="1" source="wdMxcrK1MPIqSiPF5bQf-10" target="wdMxcrK1MPIqSiPF5bQf-4">
          <mxGeometry relative="1" as="geometry" />
        </mxCell>
        <mxCell id="wdMxcrK1MPIqSiPF5bQf-10" value="Actor" style="shape=umlActor;verticalLabelPosition=bottom;verticalAlign=top;html=1;outlineConnect=0;" vertex="1" parent="1">
          <mxGeometry x="1110" y="570" width="30" height="60" as="geometry" />
        </mxCell>
        <mxCell id="wdMxcrK1MPIqSiPF5bQf-13" style="edgeStyle=orthogonalEdgeStyle;rounded=0;orthogonalLoop=1;jettySize=auto;html=1;" edge="1" parent="1" source="wdMxcrK1MPIqSiPF5bQf-12">
          <mxGeometry relative="1" as="geometry">
            <mxPoint x="930" y="440" as="targetPoint" />
          </mxGeometry>
        </mxCell>
        <mxCell id="wdMxcrK1MPIqSiPF5bQf-12" value="Actor" style="shape=umlActor;verticalLabelPosition=bottom;verticalAlign=top;html=1;outlineConnect=0;" vertex="1" parent="1">
          <mxGeometry x="770" y="570" width="30" height="60" as="geometry" />
        </mxCell>
        <mxCell id="wdMxcrK1MPIqSiPF5bQf-17" style="edgeStyle=orthogonalEdgeStyle;rounded=0;orthogonalLoop=1;jettySize=auto;html=1;entryX=0;entryY=0.5;entryDx=0;entryDy=0;" edge="1" parent="1" source="wdMxcrK1MPIqSiPF5bQf-14" target="wdMxcrK1MPIqSiPF5bQf-4">
          <mxGeometry relative="1" as="geometry" />
        </mxCell>
        <mxCell id="wdMxcrK1MPIqSiPF5bQf-14" value="Actor" style="shape=umlActor;verticalLabelPosition=bottom;verticalAlign=top;html=1;outlineConnect=0;" vertex="1" parent="1">
          <mxGeometry x="475" y="370" width="30" height="60" as="geometry" />
        </mxCell>
        <mxCell id="wdMxcrK1MPIqSiPF5bQf-16" value="700 Mobile Worker" style="text;html=1;align=center;verticalAlign=middle;whiteSpace=wrap;rounded=0;" vertex="1" parent="1">
          <mxGeometry x="1160" y="585" width="60" height="30" as="geometry" />
        </mxCell>
        <mxCell id="wdMxcrK1MPIqSiPF5bQf-18" value="Arc Pro" style="text;html=1;align=center;verticalAlign=middle;whiteSpace=wrap;rounded=0;" vertex="1" parent="1">
          <mxGeometry x="550" y="235" width="60" height="30" as="geometry" />
        </mxCell>
        <mxCell id="wdMxcrK1MPIqSiPF5bQf-19" value="" style="shape=cylinder3;whiteSpace=wrap;html=1;boundedLbl=1;backgroundOutline=1;size=15;" vertex="1" parent="1">
          <mxGeometry x="400" y="250" width="50" height="60" as="geometry" />
        </mxCell>
        <mxCell id="wdMxcrK1MPIqSiPF5bQf-20" value="" style="shape=cylinder3;whiteSpace=wrap;html=1;boundedLbl=1;backgroundOutline=1;size=15;" vertex="1" parent="1">
          <mxGeometry x="740" width="50" height="60" as="geometry" />
        </mxCell>
        <mxCell id="wdMxcrK1MPIqSiPF5bQf-1" value="Database" style="rounded=1;whiteSpace=wrap;html=1;fontSize=21;" vertex="1" parent="1">
          <mxGeometry x="660" y="40" width="120" height="60" as="geometry" />
        </mxCell>
        <mxCell id="i4nNyZmyRSzJq4Cx6IJo-1" value="" style="rounded=1;whiteSpace=wrap;html=1;" vertex="1" parent="1">
          <mxGeometry x="10" y="70" width="370" height="580" as="geometry" />
        </mxCell>
        <mxCell id="i4nNyZmyRSzJq4Cx6IJo-2" style="edgeStyle=orthogonalEdgeStyle;rounded=0;orthogonalLoop=1;jettySize=auto;html=1;entryX=0.14;entryY=0.4;entryDx=0;entryDy=0;entryPerimeter=0;exitX=0.5;exitY=0;exitDx=0;exitDy=0;" edge="1" parent="1" source="i4nNyZmyRSzJq4Cx6IJo-1" target="wdMxcrK1MPIqSiPF5bQf-20">
          <mxGeometry relative="1" as="geometry">
            <Array as="points">
              <mxPoint x="185" y="24" />
            </Array>
          </mxGeometry>
        </mxCell>
      </root>
    </mxGraphModel>
  </diagram>
  <diagram id="sy4i_6mIYH-OWVpgjmkd" name="Page-2">
    <mxGraphModel dx="744" dy="4747" grid="1" gridSize="10" guides="1" tooltips="1" connect="1" arrows="1" fold="1" page="1" pageScale="1" pageWidth="2339" pageHeight="3300" math="0" shadow="0">
      <root>
        <mxCell id="0" />
        <mxCell id="1" parent="0" />
        <mxCell id="KTBz-Ieo9tdgzd4Lhtac-8" style="edgeStyle=orthogonalEdgeStyle;rounded=0;orthogonalLoop=1;jettySize=auto;html=1;" edge="1" parent="1" source="tDVgYij0LM5Bo3PEFOt6-1" target="KTBz-Ieo9tdgzd4Lhtac-7">
          <mxGeometry relative="1" as="geometry" />
        </mxCell>
        <mxCell id="tDVgYij0LM5Bo3PEFOt6-1" value="Arc Server&lt;br&gt;4 cores" style="rounded=1;whiteSpace=wrap;html=1;" vertex="1" parent="1">
          <mxGeometry x="310" y="50" width="160" height="110" as="geometry" />
        </mxCell>
        <mxCell id="KTBz-Ieo9tdgzd4Lhtac-9" style="edgeStyle=orthogonalEdgeStyle;rounded=0;orthogonalLoop=1;jettySize=auto;html=1;" edge="1" parent="1" source="tDVgYij0LM5Bo3PEFOt6-2" target="KTBz-Ieo9tdgzd4Lhtac-7">
          <mxGeometry relative="1" as="geometry" />
        </mxCell>
        <mxCell id="tDVgYij0LM5Bo3PEFOt6-2" value="Arc Server&lt;br&gt;4 Cores" style="rounded=1;whiteSpace=wrap;html=1;" vertex="1" parent="1">
          <mxGeometry x="800" y="50" width="180" height="110" as="geometry" />
        </mxCell>
        <mxCell id="tDVgYij0LM5Bo3PEFOt6-4" value="Image server&lt;br&gt;4 Cores" style="rounded=1;whiteSpace=wrap;html=1;" vertex="1" parent="1">
          <mxGeometry x="320" y="-170" width="130" height="120" as="geometry" />
        </mxCell>
        <mxCell id="tDVgYij0LM5Bo3PEFOt6-5" value="Image server&lt;br&gt;4 cores" style="rounded=1;whiteSpace=wrap;html=1;" vertex="1" parent="1">
          <mxGeometry x="790" y="-170" width="140" height="110" as="geometry" />
        </mxCell>
        <mxCell id="tDVgYij0LM5Bo3PEFOt6-7" value="Data reviewer" style="rounded=1;whiteSpace=wrap;html=1;" vertex="1" parent="1">
          <mxGeometry x="940" y="75" width="70" height="45" as="geometry" />
        </mxCell>
        <mxCell id="tDVgYij0LM5Bo3PEFOt6-10" style="edgeStyle=orthogonalEdgeStyle;rounded=0;orthogonalLoop=1;jettySize=auto;html=1;entryX=0.456;entryY=0.964;entryDx=0;entryDy=0;entryPerimeter=0;" edge="1" parent="1" source="tDVgYij0LM5Bo3PEFOt6-9" target="tDVgYij0LM5Bo3PEFOt6-2">
          <mxGeometry relative="1" as="geometry">
            <mxPoint x="870" y="400" as="targetPoint" />
          </mxGeometry>
        </mxCell>
        <mxCell id="tDVgYij0LM5Bo3PEFOt6-9" value="" style="outlineConnect=0;dashed=0;verticalLabelPosition=bottom;verticalAlign=top;align=center;html=1;shape=mxgraph.aws3.classic_load_balancer;fillColor=#F58534;gradientColor=none;rotation=-90;" vertex="1" parent="1">
          <mxGeometry x="600" y="280" width="69" height="72" as="geometry" />
        </mxCell>
        <mxCell id="tDVgYij0LM5Bo3PEFOt6-11" style="edgeStyle=orthogonalEdgeStyle;rounded=0;orthogonalLoop=1;jettySize=auto;html=1;" edge="1" parent="1" source="tDVgYij0LM5Bo3PEFOt6-9" target="tDVgYij0LM5Bo3PEFOt6-1">
          <mxGeometry relative="1" as="geometry">
            <mxPoint x="361.96000000000004" y="397" as="targetPoint" />
          </mxGeometry>
        </mxCell>
        <mxCell id="KTBz-Ieo9tdgzd4Lhtac-1" value="Production Mapping" style="rounded=1;whiteSpace=wrap;html=1;" vertex="1" parent="1">
          <mxGeometry x="940" y="130" width="70" height="45" as="geometry" />
        </mxCell>
        <mxCell id="KTBz-Ieo9tdgzd4Lhtac-2" value="Data reviewer" style="rounded=1;whiteSpace=wrap;html=1;" vertex="1" parent="1">
          <mxGeometry x="430" y="75" width="70" height="45" as="geometry" />
        </mxCell>
        <mxCell id="KTBz-Ieo9tdgzd4Lhtac-3" value="Production Mapping" style="rounded=1;whiteSpace=wrap;html=1;" vertex="1" parent="1">
          <mxGeometry x="430" y="130" width="70" height="45" as="geometry" />
        </mxCell>
        <mxCell id="KTBz-Ieo9tdgzd4Lhtac-5" value="WrokfLow Manager" style="rounded=1;whiteSpace=wrap;html=1;" vertex="1" parent="1">
          <mxGeometry x="780" y="130" width="70" height="45" as="geometry" />
        </mxCell>
        <mxCell id="KTBz-Ieo9tdgzd4Lhtac-6" value="WrokfLow Manager" style="rounded=1;whiteSpace=wrap;html=1;" vertex="1" parent="1">
          <mxGeometry x="270" y="130" width="70" height="45" as="geometry" />
        </mxCell>
        <mxCell id="KTBz-Ieo9tdgzd4Lhtac-10" style="edgeStyle=orthogonalEdgeStyle;rounded=0;orthogonalLoop=1;jettySize=auto;html=1;" edge="1" parent="1" source="KTBz-Ieo9tdgzd4Lhtac-7" target="tDVgYij0LM5Bo3PEFOt6-5">
          <mxGeometry relative="1" as="geometry" />
        </mxCell>
        <mxCell id="KTBz-Ieo9tdgzd4Lhtac-7" value="" style="outlineConnect=0;dashed=0;verticalLabelPosition=bottom;verticalAlign=top;align=center;html=1;shape=mxgraph.aws3.classic_load_balancer;fillColor=#F58534;gradientColor=none;rotation=-90;" vertex="1" parent="1">
          <mxGeometry x="590" y="-40" width="69" height="72" as="geometry" />
        </mxCell>
        <mxCell id="KTBz-Ieo9tdgzd4Lhtac-11" style="edgeStyle=orthogonalEdgeStyle;rounded=0;orthogonalLoop=1;jettySize=auto;html=1;entryX=0.369;entryY=0.967;entryDx=0;entryDy=0;entryPerimeter=0;" edge="1" parent="1" source="KTBz-Ieo9tdgzd4Lhtac-7" target="tDVgYij0LM5Bo3PEFOt6-4">
          <mxGeometry relative="1" as="geometry" />
        </mxCell>
        <mxCell id="KTBz-Ieo9tdgzd4Lhtac-15" style="edgeStyle=orthogonalEdgeStyle;rounded=0;orthogonalLoop=1;jettySize=auto;html=1;" edge="1" parent="1" source="KTBz-Ieo9tdgzd4Lhtac-12" target="tDVgYij0LM5Bo3PEFOt6-9">
          <mxGeometry relative="1" as="geometry" />
        </mxCell>
        <mxCell id="KTBz-Ieo9tdgzd4Lhtac-12" value="Portal" style="rounded=1;whiteSpace=wrap;html=1;" vertex="1" parent="1">
          <mxGeometry x="300" y="370" width="160" height="110" as="geometry" />
        </mxCell>
        <mxCell id="KTBz-Ieo9tdgzd4Lhtac-14" style="edgeStyle=orthogonalEdgeStyle;rounded=0;orthogonalLoop=1;jettySize=auto;html=1;" edge="1" parent="1" source="KTBz-Ieo9tdgzd4Lhtac-13" target="tDVgYij0LM5Bo3PEFOt6-9">
          <mxGeometry relative="1" as="geometry" />
        </mxCell>
        <mxCell id="KTBz-Ieo9tdgzd4Lhtac-13" value="Portal" style="rounded=1;whiteSpace=wrap;html=1;" vertex="1" parent="1">
          <mxGeometry x="790" y="370" width="180" height="110" as="geometry" />
        </mxCell>
        <mxCell id="KTBz-Ieo9tdgzd4Lhtac-17" style="edgeStyle=orthogonalEdgeStyle;rounded=0;orthogonalLoop=1;jettySize=auto;html=1;entryX=0;entryY=0.5;entryDx=0;entryDy=0;" edge="1" parent="1" source="KTBz-Ieo9tdgzd4Lhtac-16" target="tDVgYij0LM5Bo3PEFOt6-4">
          <mxGeometry relative="1" as="geometry" />
        </mxCell>
        <mxCell id="KTBz-Ieo9tdgzd4Lhtac-18" style="edgeStyle=orthogonalEdgeStyle;rounded=0;orthogonalLoop=1;jettySize=auto;html=1;entryX=0;entryY=0.5;entryDx=0;entryDy=0;" edge="1" parent="1" source="KTBz-Ieo9tdgzd4Lhtac-16" target="tDVgYij0LM5Bo3PEFOt6-1">
          <mxGeometry relative="1" as="geometry" />
        </mxCell>
        <mxCell id="KTBz-Ieo9tdgzd4Lhtac-16" value="" style="image;aspect=fixed;html=1;points=[];align=center;fontSize=12;image=img/lib/azure2/management_governance/Monitor.svg;" vertex="1" parent="1">
          <mxGeometry x="60" y="-40" width="64" height="64" as="geometry" />
        </mxCell>
        <mxCell id="KTBz-Ieo9tdgzd4Lhtac-22" style="edgeStyle=orthogonalEdgeStyle;rounded=0;orthogonalLoop=1;jettySize=auto;html=1;entryX=1;entryY=0.5;entryDx=0;entryDy=0;" edge="1" parent="1" source="KTBz-Ieo9tdgzd4Lhtac-19" target="tDVgYij0LM5Bo3PEFOt6-5">
          <mxGeometry relative="1" as="geometry" />
        </mxCell>
        <mxCell id="KTBz-Ieo9tdgzd4Lhtac-23" style="edgeStyle=orthogonalEdgeStyle;rounded=0;orthogonalLoop=1;jettySize=auto;html=1;entryX=0.5;entryY=0;entryDx=0;entryDy=0;" edge="1" parent="1" source="KTBz-Ieo9tdgzd4Lhtac-19" target="tDVgYij0LM5Bo3PEFOt6-2">
          <mxGeometry relative="1" as="geometry" />
        </mxCell>
        <mxCell id="KTBz-Ieo9tdgzd4Lhtac-19" value="" style="image;aspect=fixed;html=1;points=[];align=center;fontSize=12;image=img/lib/azure2/management_governance/Monitor.svg;" vertex="1" parent="1">
          <mxGeometry x="1090" y="-32" width="64" height="64" as="geometry" />
        </mxCell>
      </root>
    </mxGraphModel>
  </diagram>
  <diagram id="s12ylUuEjh0KtBHghcqT" name="Page-3">
    <mxGraphModel dx="1274" dy="677" grid="1" gridSize="10" guides="1" tooltips="1" connect="1" arrows="1" fold="1" page="1" pageScale="1" pageWidth="2339" pageHeight="3300" math="0" shadow="0">
      <root>
        <mxCell id="0" />
        <mxCell id="1" parent="0" />
        <mxCell id="0YMD3_JtEombzON7ekAe-3" value="" style="image;html=1;image=img/lib/clip_art/computers/Monitor_128x128.png" vertex="1" parent="1">
          <mxGeometry x="400" y="100" width="260" height="200" as="geometry" />
        </mxCell>
      </root>
    </mxGraphModel>
  </diagram>
  <diagram id="jKoZULkNwwGy1bN8HNsn" name="Page-4">
    <mxGraphModel dx="960" dy="532" grid="1" gridSize="10" guides="1" tooltips="1" connect="1" arrows="1" fold="1" page="1" pageScale="1" pageWidth="827" pageHeight="1169" math="0" shadow="0">
      <root>
        <mxCell id="0" />
        <mxCell id="1" parent="0" />
        <mxCell id="RhWoImzKaRvzWlqHXypg-1" value="Hexagon GIS Tools" style="whiteSpace=wrap;strokeWidth=2;" vertex="1" parent="1">
          <mxGeometry x="2707" y="456" width="330" height="128" as="geometry" />
        </mxCell>
        <mxCell id="RhWoImzKaRvzWlqHXypg-2" value="On-Prem Data Center" style="whiteSpace=wrap;strokeWidth=2;" vertex="1" parent="1">
          <mxGeometry x="20" y="198" width="2259" height="386" as="geometry" />
        </mxCell>
        <mxCell id="RhWoImzKaRvzWlqHXypg-3" value="Field Workers" style="whiteSpace=wrap;strokeWidth=2;" vertex="1" parent="1">
          <mxGeometry x="2338" y="20" width="1042" height="128" as="geometry" />
        </mxCell>
        <mxCell id="RhWoImzKaRvzWlqHXypg-4" value="ArcGIS Online" style="whiteSpace=wrap;strokeWidth=2;" vertex="1" parent="1">
          <mxGeometry x="2299" y="198" width="681" height="104" as="geometry" />
        </mxCell>
        <mxCell id="RhWoImzKaRvzWlqHXypg-5" value="ArcGIS Field Maps" style="fillColor=none;strokeColor=none;" vertex="1" parent="1">
          <mxGeometry x="2334" y="223" width="187" height="54" as="geometry" />
        </mxCell>
        <mxCell id="RhWoImzKaRvzWlqHXypg-6" value="Survey123" style="fillColor=none;strokeColor=none;" vertex="1" parent="1">
          <mxGeometry x="2660" y="220" width="132" height="54" as="geometry" />
        </mxCell>
        <mxCell id="RhWoImzKaRvzWlqHXypg-7" value="ArcGIS Dashboards" style="fillColor=none;strokeColor=none;" vertex="1" parent="1">
          <mxGeometry x="2753" y="223" width="192" height="54" as="geometry" />
        </mxCell>
        <mxCell id="RhWoImzKaRvzWlqHXypg-8" value="Mobile Workers" style="fillColor=none;strokeColor=none;" vertex="1" parent="1">
          <mxGeometry x="2448" y="57" width="169" height="54" as="geometry" />
        </mxCell>
        <mxCell id="RhWoImzKaRvzWlqHXypg-9" value="Field Devices" style="fillColor=none;strokeColor=none;" vertex="1" overrideArrowHead="circle" parent="1">
          <mxGeometry x="2667" y="57" width="154" height="54" as="geometry" />
        </mxCell>
        <mxCell id="RhWoImzKaRvzWlqHXypg-10" value="GPS Collectors" style="fillColor=none;strokeColor=none;" vertex="1" overrideArrowHead="circle" parent="1">
          <mxGeometry x="2871" y="57" width="164" height="54" as="geometry" />
        </mxCell>
        <mxCell id="RhWoImzKaRvzWlqHXypg-11" value="Field Maps/Survey123&#xa;(Offline Mode)" style="fillColor=none;strokeColor=none;" vertex="1" overrideArrowHead="circle" parent="1">
          <mxGeometry x="3085" y="45" width="260" height="78" as="geometry" />
        </mxCell>
        <mxCell id="RhWoImzKaRvzWlqHXypg-12" value="Store Imagery/Spatial Data" style="fillColor=none;strokeColor=none;" vertex="1" parent="1">
          <mxGeometry x="1295" y="352" width="255" height="54" as="geometry" />
        </mxCell>
        <mxCell id="RhWoImzKaRvzWlqHXypg-13" value="Portal for ArcGIS" style="fillColor=none;strokeColor=none;" vertex="1" overrideArrowHead="circle" parent="1">
          <mxGeometry x="55" y="493" width="179" height="54" as="geometry" />
        </mxCell>
        <mxCell id="RhWoImzKaRvzWlqHXypg-14" value="ArcGIS Server &#xa;(Web GIS)" style="fillColor=none;strokeColor=none;" vertex="1" overrideArrowHead="circle" parent="1">
          <mxGeometry x="284" y="493" width="246" height="54" as="geometry" />
        </mxCell>
        <mxCell id="RhWoImzKaRvzWlqHXypg-15" value="ArcGIS Data Store" style="fillColor=none;strokeColor=none;" vertex="1" overrideArrowHead="circle" parent="1">
          <mxGeometry x="580" y="493" width="187" height="54" as="geometry" />
        </mxCell>
        <mxCell id="RhWoImzKaRvzWlqHXypg-16" value="ArcGIS Geodatabase &#xa;SQL/PostgreSQL" style="fillColor=none;strokeColor=none;" vertex="1" overrideArrowHead="circle" parent="1">
          <mxGeometry x="817" y="481" width="260" height="78" as="geometry" />
        </mxCell>
        <mxCell id="RhWoImzKaRvzWlqHXypg-17" value="Web Adaptor (IIS) - DMZ" style="fillColor=none;strokeColor=none;" vertex="1" parent="1">
          <mxGeometry x="535" y="223" width="231" height="54" as="geometry" />
        </mxCell>
        <mxCell id="RhWoImzKaRvzWlqHXypg-19" value="Load Balancer" style="fillColor=none;strokeColor=none;" vertex="1" overrideArrowHead="circle" parent="1">
          <mxGeometry x="1127" y="493" width="161" height="54" as="geometry" />
        </mxCell>
        <mxCell id="RhWoImzKaRvzWlqHXypg-20" value="Backup Sync" style="fillColor=none;strokeColor=none;" vertex="1" parent="1">
          <mxGeometry x="1338" y="493" width="148" height="54" as="geometry" />
        </mxCell>
        <mxCell id="RhWoImzKaRvzWlqHXypg-21" value="Backup Portal" style="fillColor=none;strokeColor=none;" vertex="1" overrideArrowHead="circle" parent="1">
          <mxGeometry x="1536" y="493" width="158" height="54" as="geometry" />
        </mxCell>
        <mxCell id="RhWoImzKaRvzWlqHXypg-22" value="ArcGIS Failover Server" style="fillColor=none;strokeColor=none;" vertex="1" overrideArrowHead="circle" parent="1">
          <mxGeometry x="1745" y="493" width="219" height="54" as="geometry" />
        </mxCell>
        <mxCell id="RhWoImzKaRvzWlqHXypg-23" value="Secondary Geodatabase" style="fillColor=none;strokeColor=none;" vertex="1" overrideArrowHead="circle" parent="1">
          <mxGeometry x="2014" y="493" width="231" height="54" as="geometry" />
        </mxCell>
        <mxCell id="RhWoImzKaRvzWlqHXypg-24" value="Firewall / VPN Gateway" style="fillColor=none;strokeColor=none;" vertex="1" parent="1">
          <mxGeometry x="816" y="223" width="232" height="54" as="geometry" />
        </mxCell>
        <mxCell id="RhWoImzKaRvzWlqHXypg-25" value="Export Data (Shapefile/GeoJSON)" style="fillColor=none;strokeColor=none;" vertex="1" parent="1">
          <mxGeometry x="2742" y="481" width="260" height="78" as="geometry" />
        </mxCell>
        <mxCell id="RhWoImzKaRvzWlqHXypg-26" value="" style="curved=1;startArrow=circle;startFill=0;endArrow=circle;endFill=0;exitX=0.21;exitY=1;entryX=0.47;entryY=0;rounded=0;" edge="1" parent="1" source="RhWoImzKaRvzWlqHXypg-8" target="RhWoImzKaRvzWlqHXypg-5">
          <mxGeometry relative="1" as="geometry">
            <Array as="points">
              <mxPoint x="2418" y="148" />
              <mxPoint x="2418" y="198" />
            </Array>
          </mxGeometry>
        </mxCell>
        <mxCell id="RhWoImzKaRvzWlqHXypg-27" value="" style="curved=1;startArrow=none;endArrow=circle;endFill=0;exitX=0.76;exitY=1;entryX=0.5;entryY=0;rounded=0;" edge="1" parent="1" source="RhWoImzKaRvzWlqHXypg-8" target="RhWoImzKaRvzWlqHXypg-6">
          <mxGeometry relative="1" as="geometry">
            <Array as="points">
              <mxPoint x="2637" y="148" />
            </Array>
          </mxGeometry>
        </mxCell>
        <mxCell id="RhWoImzKaRvzWlqHXypg-28" value="" style="curved=1;startArrow=none;endArrow=circle;endFill=0;exitX=1;exitY=0.82;entryX=0.5;entryY=0;rounded=0;" edge="1" parent="1" source="RhWoImzKaRvzWlqHXypg-8" target="RhWoImzKaRvzWlqHXypg-7">
          <mxGeometry relative="1" as="geometry">
            <Array as="points">
              <mxPoint x="2849" y="148" />
            </Array>
          </mxGeometry>
        </mxCell>
        <mxCell id="RhWoImzKaRvzWlqHXypg-29" value="" style="curved=1;startArrow=circle;startFill=0;endArrow=circle;endFill=0;exitX=0.48;exitY=1;entryX=0.5;entryY=0;rounded=0;" edge="1" parent="1" source="RhWoImzKaRvzWlqHXypg-12" target="RhWoImzKaRvzWlqHXypg-20">
          <mxGeometry relative="1" as="geometry">
            <Array as="points">
              <mxPoint x="1412" y="431" />
            </Array>
          </mxGeometry>
        </mxCell>
        <mxCell id="RhWoImzKaRvzWlqHXypg-30" value="" style="curved=1;startArrow=none;endArrow=circle;endFill=0;exitX=1;exitY=0.79;entryX=0;entryY=0.4;rounded=0;" edge="1" parent="1" source="RhWoImzKaRvzWlqHXypg-12" target="RhWoImzKaRvzWlqHXypg-25">
          <mxGeometry relative="1" as="geometry">
            <Array as="points">
              <mxPoint x="1846" y="431" />
              <mxPoint x="1846" y="456" />
            </Array>
          </mxGeometry>
        </mxCell>
        <mxCell id="RhWoImzKaRvzWlqHXypg-31" value="" style="curved=1;startArrow=circle;startFill=0;endArrow=block;exitX=0.5;exitY=1;entryX=0;entryY=0.34;rounded=0;" edge="1" parent="1" source="RhWoImzKaRvzWlqHXypg-17" target="RhWoImzKaRvzWlqHXypg-12">
          <mxGeometry relative="1" as="geometry">
            <Array as="points">
              <mxPoint x="651" y="327" />
            </Array>
          </mxGeometry>
        </mxCell>
        <mxCell id="RhWoImzKaRvzWlqHXypg-32" value="" style="curved=1;startArrow=circle;startFill=0;endArrow=block;exitX=0.5;exitY=1;entryX=0;entryY=0.25;rounded=0;" edge="1" parent="1" source="RhWoImzKaRvzWlqHXypg-24" target="RhWoImzKaRvzWlqHXypg-12">
          <mxGeometry relative="1" as="geometry">
            <Array as="points">
              <mxPoint x="932" y="327" />
            </Array>
          </mxGeometry>
        </mxCell>
        <mxCell id="RhWoImzKaRvzWlqHXypg-34" value="" style="curved=1;startArrow=none;endArrow=block;rounded=0;" edge="1" parent="1" source="RhWoImzKaRvzWlqHXypg-8" target="RhWoImzKaRvzWlqHXypg-4">
          <mxGeometry relative="1" as="geometry">
            <Array as="points" />
          </mxGeometry>
        </mxCell>
        <mxCell id="RhWoImzKaRvzWlqHXypg-35" value="" style="curved=1;startArrow=none;endArrow=block;rounded=0;" edge="1" parent="1" source="RhWoImzKaRvzWlqHXypg-4" target="RhWoImzKaRvzWlqHXypg-12">
          <mxGeometry relative="1" as="geometry">
            <Array as="points" />
          </mxGeometry>
        </mxCell>
      </root>
    </mxGraphModel>
  </diagram>
  <diagram id="p7AC2mamlXwgOtRcbv7T" name="Page-5">
    <mxGraphModel dx="1600" dy="887" grid="1" gridSize="10" guides="1" tooltips="1" connect="1" arrows="1" fold="1" page="1" pageScale="1" pageWidth="827" pageHeight="1169" math="0" shadow="0">
      <root>
        <mxCell id="0" />
        <mxCell id="1" parent="0" />
        <mxCell id="C5as6Q35RNDgzeWJ0hIH-1" value="Hexagon GIS Tools" style="whiteSpace=wrap;strokeWidth=2;" vertex="1" parent="1">
          <mxGeometry x="20" y="402" width="330" height="203" as="geometry" />
        </mxCell>
        <mxCell id="C5as6Q35RNDgzeWJ0hIH-2" value="On-Prem Data Center - Active-Active HA" style="whiteSpace=wrap;strokeWidth=2;" vertex="1" parent="1">
          <mxGeometry x="370" y="20" width="1448" height="714" as="geometry" />
        </mxCell>
        <mxCell id="C5as6Q35RNDgzeWJ0hIH-3" value="ArcGIS Enterprise Cluster - Node 2" style="whiteSpace=wrap;strokeWidth=2;verticalAlign=top;" vertex="1" parent="1">
          <mxGeometry x="405" y="427" width="1092" height="153" as="geometry" />
        </mxCell>
        <mxCell id="C5as6Q35RNDgzeWJ0hIH-4" value="Portal for ArcGIS" style="fillColor=none;strokeColor=none;" vertex="1" overrideArrowHead="circle" parent="C5as6Q35RNDgzeWJ0hIH-3">
          <mxGeometry x="43" y="58" width="179" height="54" as="geometry" />
        </mxCell>
        <mxCell id="C5as6Q35RNDgzeWJ0hIH-5" value="ArcGIS Server &#xa;(Web GIS)" style="fillColor=none;strokeColor=none;" vertex="1" overrideArrowHead="circle" parent="C5as6Q35RNDgzeWJ0hIH-3">
          <mxGeometry x="272" y="58" width="246" height="54" as="geometry" />
        </mxCell>
        <mxCell id="C5as6Q35RNDgzeWJ0hIH-6" value="ArcGIS Data Store" style="fillColor=none;strokeColor=none;" vertex="1" overrideArrowHead="circle" parent="C5as6Q35RNDgzeWJ0hIH-3">
          <mxGeometry x="568" y="58" width="187" height="54" as="geometry" />
        </mxCell>
        <mxCell id="C5as6Q35RNDgzeWJ0hIH-7" value="ArcGIS Geodatabase &#xa;(SQL/PostgreSQL)" style="fillColor=none;strokeColor=none;" vertex="1" overrideArrowHead="circle" parent="C5as6Q35RNDgzeWJ0hIH-3">
          <mxGeometry x="805" y="46" width="260" height="78" as="geometry" />
        </mxCell>
        <mxCell id="C5as6Q35RNDgzeWJ0hIH-8" value="ArcGIS Enterprise Cluster - Node 1" style="whiteSpace=wrap;strokeWidth=2;verticalAlign=top;" vertex="1" parent="1">
          <mxGeometry x="473" y="174" width="1092" height="153" as="geometry" />
        </mxCell>
        <mxCell id="C5as6Q35RNDgzeWJ0hIH-9" value="Portal for ArcGIS" style="fillColor=none;strokeColor=none;" vertex="1" overrideArrowHead="circle" parent="C5as6Q35RNDgzeWJ0hIH-8">
          <mxGeometry x="43" y="58" width="179" height="54" as="geometry" />
        </mxCell>
        <mxCell id="C5as6Q35RNDgzeWJ0hIH-10" value="ArcGIS Server &#xa;(Web GIS)" style="fillColor=none;strokeColor=none;" vertex="1" overrideArrowHead="circle" parent="C5as6Q35RNDgzeWJ0hIH-8">
          <mxGeometry x="272" y="58" width="246" height="54" as="geometry" />
        </mxCell>
        <mxCell id="C5as6Q35RNDgzeWJ0hIH-11" value="ArcGIS Data Store" style="fillColor=none;strokeColor=none;" vertex="1" overrideArrowHead="circle" parent="C5as6Q35RNDgzeWJ0hIH-8">
          <mxGeometry x="568" y="58" width="187" height="54" as="geometry" />
        </mxCell>
        <mxCell id="C5as6Q35RNDgzeWJ0hIH-12" value="ArcGIS Geodatabase &#xa;(SQL/PostgreSQL)" style="fillColor=none;strokeColor=none;" vertex="1" overrideArrowHead="circle" parent="C5as6Q35RNDgzeWJ0hIH-8">
          <mxGeometry x="805" y="46" width="260" height="78" as="geometry" />
        </mxCell>
        <mxCell id="C5as6Q35RNDgzeWJ0hIH-13" value="Field Workers" style="whiteSpace=wrap;strokeWidth=2;" vertex="1" parent="1">
          <mxGeometry x="2124" y="149" width="1105" height="203" as="geometry" />
        </mxCell>
        <mxCell id="C5as6Q35RNDgzeWJ0hIH-14" value="Esri Disaster Recovery Cloud - Hosted" style="whiteSpace=wrap;strokeWidth=2;" vertex="1" parent="1">
          <mxGeometry x="1838" y="402" width="1583" height="203" as="geometry" />
        </mxCell>
        <mxCell id="C5as6Q35RNDgzeWJ0hIH-15" value="ArcGIS Field Maps" style="fillColor=none;strokeColor=none;" vertex="1" parent="1">
          <mxGeometry x="2183" y="477" width="187" height="54" as="geometry" />
        </mxCell>
        <mxCell id="C5as6Q35RNDgzeWJ0hIH-16" value="Survey123" style="fillColor=none;strokeColor=none;" vertex="1" parent="1">
          <mxGeometry x="2420" y="477" width="132" height="54" as="geometry" />
        </mxCell>
        <mxCell id="C5as6Q35RNDgzeWJ0hIH-17" value="ArcGIS Dashboards" style="fillColor=none;strokeColor=none;" vertex="1" parent="1">
          <mxGeometry x="2602" y="477" width="192" height="54" as="geometry" />
        </mxCell>
        <mxCell id="C5as6Q35RNDgzeWJ0hIH-18" value="Replicate On-Prem to Cloud DR" style="fillColor=none;strokeColor=none;" vertex="1" parent="1">
          <mxGeometry x="1873" y="465" width="260" height="78" as="geometry" />
        </mxCell>
        <mxCell id="C5as6Q35RNDgzeWJ0hIH-19" value="ArcGIS Server (Web GIS)" style="fillColor=none;strokeColor=none;" vertex="1" overrideArrowHead="circle" parent="1">
          <mxGeometry x="2844" y="477" width="232" height="54" as="geometry" />
        </mxCell>
        <mxCell id="C5as6Q35RNDgzeWJ0hIH-20" value="Cloud Geodatabase (SQL/PostgreSQL)" style="fillColor=none;strokeColor=none;" vertex="1" overrideArrowHead="circle" parent="1">
          <mxGeometry x="3126" y="465" width="260" height="78" as="geometry" />
        </mxCell>
        <mxCell id="C5as6Q35RNDgzeWJ0hIH-21" value="Mobile Workers" style="fillColor=none;strokeColor=none;" vertex="1" parent="1">
          <mxGeometry x="2297" y="224" width="169" height="54" as="geometry" />
        </mxCell>
        <mxCell id="C5as6Q35RNDgzeWJ0hIH-22" value="Field Devices" style="fillColor=none;strokeColor=none;" vertex="1" overrideArrowHead="circle" parent="1">
          <mxGeometry x="2516" y="224" width="154" height="54" as="geometry" />
        </mxCell>
        <mxCell id="C5as6Q35RNDgzeWJ0hIH-23" value="GPS Collectors" style="fillColor=none;strokeColor=none;" vertex="1" overrideArrowHead="circle" parent="1">
          <mxGeometry x="2720" y="224" width="164" height="54" as="geometry" />
        </mxCell>
        <mxCell id="C5as6Q35RNDgzeWJ0hIH-24" value="Field Maps/Survey123&#xa;(Offline Mode)" style="fillColor=none;strokeColor=none;" vertex="1" overrideArrowHead="circle" parent="1">
          <mxGeometry x="2934" y="212" width="260" height="78" as="geometry" />
        </mxCell>
        <mxCell id="C5as6Q35RNDgzeWJ0hIH-25" value="Web Adaptor (IIS) - DMZ" style="fillColor=none;strokeColor=none;" vertex="1" parent="1">
          <mxGeometry x="475" y="45" width="231" height="54" as="geometry" />
        </mxCell>
        <mxCell id="C5as6Q35RNDgzeWJ0hIH-26" value="On-Prem NAS/SAN Storage" style="fillColor=none;strokeColor=none;" vertex="1" parent="1">
          <mxGeometry x="784" y="45" width="249" height="54" as="geometry" />
        </mxCell>
        <mxCell id="C5as6Q35RNDgzeWJ0hIH-27" value="Load Balancer" style="fillColor=none;strokeColor=none;" vertex="1" overrideArrowHead="circle" parent="1">
          <mxGeometry x="536" y="655" width="161" height="54" as="geometry" />
        </mxCell>
        <mxCell id="C5as6Q35RNDgzeWJ0hIH-28" value="Backup Sync" style="fillColor=none;strokeColor=none;" vertex="1" parent="1">
          <mxGeometry x="877" y="655" width="148" height="54" as="geometry" />
        </mxCell>
        <mxCell id="C5as6Q35RNDgzeWJ0hIH-29" value="Backup Portal" style="fillColor=none;strokeColor=none;" vertex="1" overrideArrowHead="circle" parent="1">
          <mxGeometry x="1075" y="655" width="158" height="54" as="geometry" />
        </mxCell>
        <mxCell id="C5as6Q35RNDgzeWJ0hIH-30" value="ArcGIS Failover Server" style="fillColor=none;strokeColor=none;" vertex="1" overrideArrowHead="circle" parent="1">
          <mxGeometry x="1284" y="655" width="219" height="54" as="geometry" />
        </mxCell>
        <mxCell id="C5as6Q35RNDgzeWJ0hIH-31" value="Secondary Geodatabase" style="fillColor=none;strokeColor=none;" vertex="1" overrideArrowHead="circle" parent="1">
          <mxGeometry x="1553" y="655" width="231" height="54" as="geometry" />
        </mxCell>
        <mxCell id="C5as6Q35RNDgzeWJ0hIH-32" value="Firewall / VPN Gateway" style="fillColor=none;strokeColor=none;" vertex="1" parent="1">
          <mxGeometry x="1296" y="45" width="232" height="54" as="geometry" />
        </mxCell>
        <mxCell id="C5as6Q35RNDgzeWJ0hIH-33" value="Export Data (Shapefile/GeoJSON)" style="fillColor=none;strokeColor=none;" vertex="1" parent="1">
          <mxGeometry x="55" y="465" width="260" height="78" as="geometry" />
        </mxCell>
        <mxCell id="C5as6Q35RNDgzeWJ0hIH-34" value="" style="curved=1;startArrow=circle;startFill=0;endArrow=circle;endFill=0;exitX=0.22;exitY=0.99;entryX=0.4;entryY=-0.01;rounded=0;" edge="1" parent="1" source="C5as6Q35RNDgzeWJ0hIH-21" target="C5as6Q35RNDgzeWJ0hIH-15">
          <mxGeometry relative="1" as="geometry">
            <Array as="points">
              <mxPoint x="2204" y="352" />
              <mxPoint x="2204" y="402" />
            </Array>
          </mxGeometry>
        </mxCell>
        <mxCell id="C5as6Q35RNDgzeWJ0hIH-35" value="" style="curved=1;startArrow=none;endArrow=circle;endFill=0;exitX=0.55;exitY=0.99;entryX=0.35;entryY=-0.01;rounded=0;" edge="1" parent="1" source="C5as6Q35RNDgzeWJ0hIH-21" target="C5as6Q35RNDgzeWJ0hIH-16">
          <mxGeometry relative="1" as="geometry">
            <Array as="points">
              <mxPoint x="2414" y="352" />
              <mxPoint x="2414" y="402" />
            </Array>
          </mxGeometry>
        </mxCell>
        <mxCell id="C5as6Q35RNDgzeWJ0hIH-36" value="" style="curved=1;startArrow=none;endArrow=circle;endFill=0;exitX=0.88;exitY=0.99;entryX=0.4;entryY=-0.01;rounded=0;" edge="1" parent="1" source="C5as6Q35RNDgzeWJ0hIH-21" target="C5as6Q35RNDgzeWJ0hIH-17">
          <mxGeometry relative="1" as="geometry">
            <Array as="points">
              <mxPoint x="2626" y="352" />
              <mxPoint x="2626" y="402" />
            </Array>
          </mxGeometry>
        </mxCell>
        <mxCell id="C5as6Q35RNDgzeWJ0hIH-37" value="" style="curved=1;startArrow=none;endArrow=circle;endFill=0;exitX=1;exitY=0.84;entryX=1;entryY=0.29;rounded=0;" edge="1" parent="1" source="C5as6Q35RNDgzeWJ0hIH-21" target="C5as6Q35RNDgzeWJ0hIH-18">
          <mxGeometry relative="1" as="geometry">
            <Array as="points">
              <mxPoint x="2839" y="352" />
              <mxPoint x="2839" y="402" />
            </Array>
          </mxGeometry>
        </mxCell>
        <mxCell id="C5as6Q35RNDgzeWJ0hIH-38" value="" style="curved=1;startArrow=none;endArrow=block;exitX=0;exitY=0.18;entryX=0.8;entryY=1;rounded=0;" edge="1" parent="1" source="C5as6Q35RNDgzeWJ0hIH-18" target="C5as6Q35RNDgzeWJ0hIH-8">
          <mxGeometry relative="1" as="geometry">
            <Array as="points">
              <mxPoint x="1459" y="402" />
              <mxPoint x="1459" y="352" />
            </Array>
          </mxGeometry>
        </mxCell>
        <mxCell id="C5as6Q35RNDgzeWJ0hIH-39" value="" style="curved=1;startArrow=none;endArrow=block;exitX=0.45;exitY=1;entryX=0.5;entryY=0;rounded=0;" edge="1" parent="1" source="C5as6Q35RNDgzeWJ0hIH-8" target="C5as6Q35RNDgzeWJ0hIH-3">
          <mxGeometry relative="1" as="geometry">
            <Array as="points">
              <mxPoint x="951" y="352" />
            </Array>
          </mxGeometry>
        </mxCell>
        <mxCell id="C5as6Q35RNDgzeWJ0hIH-40" value="" style="curved=1;startArrow=none;endArrow=circle;endFill=0;exitX=0.5;exitY=1;entryX=0.5;entryY=0;rounded=0;" edge="1" parent="1" source="C5as6Q35RNDgzeWJ0hIH-3" target="C5as6Q35RNDgzeWJ0hIH-28">
          <mxGeometry relative="1" as="geometry">
            <Array as="points" />
          </mxGeometry>
        </mxCell>
        <mxCell id="C5as6Q35RNDgzeWJ0hIH-41" value="" style="curved=1;startArrow=none;endArrow=circle;endFill=0;exitX=0.51;exitY=1;entryX=1;entryY=0.29;rounded=0;" edge="1" parent="1" source="C5as6Q35RNDgzeWJ0hIH-8" target="C5as6Q35RNDgzeWJ0hIH-33">
          <mxGeometry relative="1" as="geometry">
            <Array as="points">
              <mxPoint x="1029" y="352" />
              <mxPoint x="1029" y="402" />
            </Array>
          </mxGeometry>
        </mxCell>
        <mxCell id="C5as6Q35RNDgzeWJ0hIH-42" value="" style="curved=1;startArrow=circle;startFill=0;endArrow=block;exitX=0.5;exitY=1;entryX=0.2;entryY=0;rounded=0;" edge="1" parent="1" source="C5as6Q35RNDgzeWJ0hIH-25" target="C5as6Q35RNDgzeWJ0hIH-8">
          <mxGeometry relative="1" as="geometry">
            <Array as="points">
              <mxPoint x="591" y="149" />
            </Array>
          </mxGeometry>
        </mxCell>
        <mxCell id="C5as6Q35RNDgzeWJ0hIH-43" value="" style="curved=1;startArrow=circle;startFill=0;endArrow=block;exitX=0.5;exitY=1;entryX=0.77;entryY=0;rounded=0;" edge="1" parent="1" source="C5as6Q35RNDgzeWJ0hIH-32" target="C5as6Q35RNDgzeWJ0hIH-8">
          <mxGeometry relative="1" as="geometry">
            <Array as="points">
              <mxPoint x="1412" y="149" />
            </Array>
          </mxGeometry>
        </mxCell>
        <mxCell id="C5as6Q35RNDgzeWJ0hIH-44" value="" style="curved=1;startArrow=circle;startFill=0;endArrow=block;exitX=0.5;exitY=1;entryX=0.42;entryY=0;rounded=0;" edge="1" parent="1" source="C5as6Q35RNDgzeWJ0hIH-26" target="C5as6Q35RNDgzeWJ0hIH-8">
          <mxGeometry relative="1" as="geometry">
            <Array as="points">
              <mxPoint x="909" y="149" />
            </Array>
          </mxGeometry>
        </mxCell>
        <mxCell id="C5as6Q35RNDgzeWJ0hIH-45" value="" style="curved=1;startArrow=none;endArrow=block;exitX=0.79;exitY=1;entryX=0;entryY=0.19;rounded=0;" edge="1" parent="1" source="C5as6Q35RNDgzeWJ0hIH-8" target="C5as6Q35RNDgzeWJ0hIH-18">
          <mxGeometry relative="1" as="geometry">
            <Array as="points">
              <mxPoint x="1439" y="352" />
              <mxPoint x="1439" y="402" />
            </Array>
          </mxGeometry>
        </mxCell>
      </root>
    </mxGraphModel>
  </diagram>
  <diagram id="ZChtN-lRUAVLuhVo2QpB" name="Page-6">
    <mxGraphModel dx="1920" dy="1064" grid="1" gridSize="10" guides="1" tooltips="1" connect="1" arrows="1" fold="1" page="1" pageScale="1" pageWidth="827" pageHeight="1169" math="0" shadow="0">
      <root>
        <mxCell id="0" />
        <mxCell id="1" parent="0" />
        <mxCell id="wRMrHnPXwIYJQ3hWMCE_-1" value="Hexagon GIS Tools" style="whiteSpace=wrap;strokeWidth=2;" vertex="1" parent="1">
          <mxGeometry x="20" y="506" width="330" height="203" as="geometry" />
        </mxCell>
        <mxCell id="wRMrHnPXwIYJQ3hWMCE_-2" value="On-Prem Data Center - Active-Active HA" style="whiteSpace=wrap;strokeWidth=2;" vertex="1" parent="1">
          <mxGeometry x="370" y="20" width="1677" height="818" as="geometry" />
        </mxCell>
        <mxCell id="wRMrHnPXwIYJQ3hWMCE_-3" value="ArcGIS Enterprise Cluster - Node 2" style="whiteSpace=wrap;strokeWidth=2;verticalAlign=top;" vertex="1" parent="1">
          <mxGeometry x="422" y="531" width="1092" height="153" as="geometry" />
        </mxCell>
        <mxCell id="wRMrHnPXwIYJQ3hWMCE_-4" value="Portal for ArcGIS" style="fillColor=none;strokeColor=none;" vertex="1" overrideArrowHead="circle" parent="wRMrHnPXwIYJQ3hWMCE_-3">
          <mxGeometry x="43" y="58" width="179" height="54" as="geometry" />
        </mxCell>
        <mxCell id="wRMrHnPXwIYJQ3hWMCE_-5" value="ArcGIS Server &#xa;(Web GIS)" style="fillColor=none;strokeColor=none;" vertex="1" overrideArrowHead="circle" parent="wRMrHnPXwIYJQ3hWMCE_-3">
          <mxGeometry x="272" y="58" width="246" height="54" as="geometry" />
        </mxCell>
        <mxCell id="wRMrHnPXwIYJQ3hWMCE_-6" value="ArcGIS Data Store" style="fillColor=none;strokeColor=none;" vertex="1" overrideArrowHead="circle" parent="wRMrHnPXwIYJQ3hWMCE_-3">
          <mxGeometry x="568" y="58" width="187" height="54" as="geometry" />
        </mxCell>
        <mxCell id="wRMrHnPXwIYJQ3hWMCE_-7" value="ArcGIS Geodatabase &#xa;(SQL/PostgreSQL)" style="fillColor=none;strokeColor=none;" vertex="1" overrideArrowHead="circle" parent="wRMrHnPXwIYJQ3hWMCE_-3">
          <mxGeometry x="805" y="46" width="260" height="78" as="geometry" />
        </mxCell>
        <mxCell id="wRMrHnPXwIYJQ3hWMCE_-8" value="ArcGIS Enterprise Cluster - Node 1" style="whiteSpace=wrap;strokeWidth=2;verticalAlign=top;" vertex="1" parent="1">
          <mxGeometry x="766" y="278" width="1092" height="153" as="geometry" />
        </mxCell>
        <mxCell id="wRMrHnPXwIYJQ3hWMCE_-9" value="Portal for ArcGIS" style="fillColor=none;strokeColor=none;" vertex="1" overrideArrowHead="circle" parent="wRMrHnPXwIYJQ3hWMCE_-8">
          <mxGeometry x="43" y="58" width="179" height="54" as="geometry" />
        </mxCell>
        <mxCell id="wRMrHnPXwIYJQ3hWMCE_-10" value="ArcGIS Server &#xa;(Web GIS)" style="fillColor=none;strokeColor=none;" vertex="1" overrideArrowHead="circle" parent="wRMrHnPXwIYJQ3hWMCE_-8">
          <mxGeometry x="272" y="58" width="246" height="54" as="geometry" />
        </mxCell>
        <mxCell id="wRMrHnPXwIYJQ3hWMCE_-11" value="ArcGIS Data Store" style="fillColor=none;strokeColor=none;" vertex="1" overrideArrowHead="circle" parent="wRMrHnPXwIYJQ3hWMCE_-8">
          <mxGeometry x="568" y="58" width="187" height="54" as="geometry" />
        </mxCell>
        <mxCell id="wRMrHnPXwIYJQ3hWMCE_-12" value="ArcGIS Geodatabase &#xa;(SQL/PostgreSQL)" style="fillColor=none;strokeColor=none;" vertex="1" overrideArrowHead="circle" parent="wRMrHnPXwIYJQ3hWMCE_-8">
          <mxGeometry x="805" y="46" width="260" height="78" as="geometry" />
        </mxCell>
        <mxCell id="wRMrHnPXwIYJQ3hWMCE_-13" value="Field Workers" style="whiteSpace=wrap;strokeWidth=2;" vertex="1" parent="1">
          <mxGeometry x="2193" y="253" width="1268" height="203" as="geometry" />
        </mxCell>
        <mxCell id="wRMrHnPXwIYJQ3hWMCE_-14" value="Esri Disaster Recovery Cloud - Hosted" style="whiteSpace=wrap;strokeWidth=2;" vertex="1" parent="1">
          <mxGeometry x="2067" y="506" width="1583" height="203" as="geometry" />
        </mxCell>
        <mxCell id="wRMrHnPXwIYJQ3hWMCE_-15" value="ArcGIS Field Maps" style="fillColor=none;strokeColor=none;" vertex="1" parent="1">
          <mxGeometry x="2836" y="581" width="187" height="54" as="geometry" />
        </mxCell>
        <mxCell id="wRMrHnPXwIYJQ3hWMCE_-16" value="Survey123" style="fillColor=none;strokeColor=none;" vertex="1" parent="1">
          <mxGeometry x="2654" y="581" width="132" height="54" as="geometry" />
        </mxCell>
        <mxCell id="wRMrHnPXwIYJQ3hWMCE_-17" value="ArcGIS Dashboards" style="fillColor=none;strokeColor=none;" vertex="1" parent="1">
          <mxGeometry x="2412" y="581" width="192" height="54" as="geometry" />
        </mxCell>
        <mxCell id="wRMrHnPXwIYJQ3hWMCE_-18" value="Replicate On-Prem to Cloud DR" style="fillColor=none;strokeColor=none;" vertex="1" parent="1">
          <mxGeometry x="2102" y="569" width="260" height="78" as="geometry" />
        </mxCell>
        <mxCell id="wRMrHnPXwIYJQ3hWMCE_-19" value="ArcGIS Server (Web GIS)" style="fillColor=none;strokeColor=none;" vertex="1" overrideArrowHead="circle" parent="1">
          <mxGeometry x="3073" y="581" width="232" height="54" as="geometry" />
        </mxCell>
        <mxCell id="wRMrHnPXwIYJQ3hWMCE_-20" value="Cloud Geodatabase (SQL/PostgreSQL)" style="fillColor=none;strokeColor=none;" vertex="1" overrideArrowHead="circle" parent="1">
          <mxGeometry x="3354" y="569" width="260" height="78" as="geometry" />
        </mxCell>
        <mxCell id="wRMrHnPXwIYJQ3hWMCE_-21" value="Mobile Workers" style="fillColor=none;strokeColor=none;" vertex="1" parent="1">
          <mxGeometry x="2529" y="328" width="169" height="54" as="geometry" />
        </mxCell>
        <mxCell id="wRMrHnPXwIYJQ3hWMCE_-22" value="Field Devices" style="fillColor=none;strokeColor=none;" vertex="1" overrideArrowHead="circle" parent="1">
          <mxGeometry x="2748" y="328" width="154" height="54" as="geometry" />
        </mxCell>
        <mxCell id="wRMrHnPXwIYJQ3hWMCE_-23" value="GPS Collectors" style="fillColor=none;strokeColor=none;" vertex="1" overrideArrowHead="circle" parent="1">
          <mxGeometry x="2953" y="328" width="164" height="54" as="geometry" />
        </mxCell>
        <mxCell id="wRMrHnPXwIYJQ3hWMCE_-24" value="Field Maps/Survey123&#xa;(Offline Mode)" style="fillColor=none;strokeColor=none;" vertex="1" overrideArrowHead="circle" parent="1">
          <mxGeometry x="3167" y="316" width="260" height="78" as="geometry" />
        </mxCell>
        <mxCell id="wRMrHnPXwIYJQ3hWMCE_-25" value="VPN Access for QC Team" style="fillColor=none;strokeColor=none;" vertex="1" parent="1">
          <mxGeometry x="760" y="149" width="234" height="54" as="geometry" />
        </mxCell>
        <mxCell id="wRMrHnPXwIYJQ3hWMCE_-26" value="Web Adaptor (IIS) - DMZ" style="fillColor=none;strokeColor=none;" vertex="1" parent="1">
          <mxGeometry x="620" y="45" width="231" height="54" as="geometry" />
        </mxCell>
        <mxCell id="wRMrHnPXwIYJQ3hWMCE_-27" value="On-Prem NAS/SAN Storage" style="fillColor=none;strokeColor=none;" vertex="1" parent="1">
          <mxGeometry x="1399" y="149" width="249" height="54" as="geometry" />
        </mxCell>
        <mxCell id="wRMrHnPXwIYJQ3hWMCE_-28" value="Backup Sync" style="fillColor=none;strokeColor=none;" vertex="1" parent="1">
          <mxGeometry x="894" y="759" width="148" height="54" as="geometry" />
        </mxCell>
        <mxCell id="wRMrHnPXwIYJQ3hWMCE_-29" value="Backup Portal" style="fillColor=none;strokeColor=none;" vertex="1" overrideArrowHead="circle" parent="1">
          <mxGeometry x="1303" y="759" width="158" height="54" as="geometry" />
        </mxCell>
        <mxCell id="wRMrHnPXwIYJQ3hWMCE_-30" value="ArcGIS Failover Server" style="fillColor=none;strokeColor=none;" vertex="1" overrideArrowHead="circle" parent="1">
          <mxGeometry x="1512" y="759" width="219" height="54" as="geometry" />
        </mxCell>
        <mxCell id="wRMrHnPXwIYJQ3hWMCE_-31" value="Secondary Geodatabase" style="fillColor=none;strokeColor=none;" vertex="1" overrideArrowHead="circle" parent="1">
          <mxGeometry x="1781" y="759" width="231" height="54" as="geometry" />
        </mxCell>
        <mxCell id="wRMrHnPXwIYJQ3hWMCE_-32" value="Firewall / VPN Gateway" style="fillColor=none;strokeColor=none;" vertex="1" parent="1">
          <mxGeometry x="1266" y="45" width="232" height="54" as="geometry" />
        </mxCell>
        <mxCell id="wRMrHnPXwIYJQ3hWMCE_-33" value="Export Data (Shapefile/GeoJSON)" style="fillColor=none;strokeColor=none;" vertex="1" parent="1">
          <mxGeometry x="55" y="569" width="260" height="78" as="geometry" />
        </mxCell>
        <mxCell id="wRMrHnPXwIYJQ3hWMCE_-34" value="" style="curved=1;startArrow=circle;startFill=0;endArrow=circle;endFill=0;exitX=1;exitY=0.99;entryX=0.5;entryY=-0.01;rounded=0;" edge="1" parent="1" source="wRMrHnPXwIYJQ3hWMCE_-21" target="wRMrHnPXwIYJQ3hWMCE_-15">
          <mxGeometry relative="1" as="geometry">
            <Array as="points">
              <mxPoint x="2929" y="456" />
            </Array>
          </mxGeometry>
        </mxCell>
        <mxCell id="wRMrHnPXwIYJQ3hWMCE_-35" value="" style="curved=1;startArrow=none;endArrow=circle;endFill=0;exitX=0.67;exitY=0.99;entryX=0.5;entryY=-0.01;rounded=0;" edge="1" parent="1" source="wRMrHnPXwIYJQ3hWMCE_-21" target="wRMrHnPXwIYJQ3hWMCE_-16">
          <mxGeometry relative="1" as="geometry">
            <Array as="points">
              <mxPoint x="2720" y="456" />
            </Array>
          </mxGeometry>
        </mxCell>
        <mxCell id="wRMrHnPXwIYJQ3hWMCE_-36" value="" style="curved=1;startArrow=none;endArrow=circle;endFill=0;exitX=0.34;exitY=0.99;entryX=0.5;entryY=-0.01;rounded=0;" edge="1" parent="1" source="wRMrHnPXwIYJQ3hWMCE_-21" target="wRMrHnPXwIYJQ3hWMCE_-17">
          <mxGeometry relative="1" as="geometry">
            <Array as="points">
              <mxPoint x="2508" y="456" />
            </Array>
          </mxGeometry>
        </mxCell>
        <mxCell id="wRMrHnPXwIYJQ3hWMCE_-37" value="" style="curved=1;startArrow=none;endArrow=circle;endFill=0;exitX=0;exitY=0.96;entryX=0.56;entryY=-0.01;rounded=0;" edge="1" parent="1" source="wRMrHnPXwIYJQ3hWMCE_-21" target="wRMrHnPXwIYJQ3hWMCE_-18">
          <mxGeometry relative="1" as="geometry">
            <Array as="points">
              <mxPoint x="2273" y="456" />
              <mxPoint x="2273" y="506" />
            </Array>
          </mxGeometry>
        </mxCell>
        <mxCell id="wRMrHnPXwIYJQ3hWMCE_-38" value="" style="curved=1;startArrow=circle;startFill=0;endArrow=circle;endFill=0;exitX=0.5;exitY=1;entryX=0.19;entryY=0;rounded=0;" edge="1" parent="1" source="wRMrHnPXwIYJQ3hWMCE_-26" target="wRMrHnPXwIYJQ3hWMCE_-25">
          <mxGeometry relative="1" as="geometry">
            <Array as="points">
              <mxPoint x="736" y="124" />
            </Array>
          </mxGeometry>
        </mxCell>
        <mxCell id="wRMrHnPXwIYJQ3hWMCE_-39" value="" style="curved=1;startArrow=circle;startFill=0;endArrow=block;exitX=0.5;exitY=1;entryX=1;entryY=0.28;rounded=0;" edge="1" parent="1" source="wRMrHnPXwIYJQ3hWMCE_-32" target="wRMrHnPXwIYJQ3hWMCE_-25">
          <mxGeometry relative="1" as="geometry">
            <Array as="points">
              <mxPoint x="1382" y="124" />
            </Array>
          </mxGeometry>
        </mxCell>
        <mxCell id="wRMrHnPXwIYJQ3hWMCE_-40" value="" style="curved=1;startArrow=none;endArrow=block;exitX=0;exitY=0.36;entryX=0.26;entryY=1;rounded=0;" edge="1" parent="1" source="wRMrHnPXwIYJQ3hWMCE_-18" target="wRMrHnPXwIYJQ3hWMCE_-8">
          <mxGeometry relative="1" as="geometry">
            <Array as="points">
              <mxPoint x="961" y="506" />
              <mxPoint x="961" y="456" />
            </Array>
          </mxGeometry>
        </mxCell>
        <mxCell id="wRMrHnPXwIYJQ3hWMCE_-41" value="" style="curved=1;startArrow=none;endArrow=block;exitX=0.7;exitY=1;entryX=0.94;entryY=0;rounded=0;" edge="1" parent="1" source="wRMrHnPXwIYJQ3hWMCE_-8" target="wRMrHnPXwIYJQ3hWMCE_-3">
          <mxGeometry relative="1" as="geometry">
            <Array as="points">
              <mxPoint x="1603" y="456" />
              <mxPoint x="1603" y="506" />
            </Array>
          </mxGeometry>
        </mxCell>
        <mxCell id="wRMrHnPXwIYJQ3hWMCE_-42" value="" style="curved=1;startArrow=none;endArrow=block;exitX=1;exitY=0.89;entryX=0.4;entryY=0;rounded=0;" edge="1" parent="1" source="wRMrHnPXwIYJQ3hWMCE_-25" target="wRMrHnPXwIYJQ3hWMCE_-8">
          <mxGeometry relative="1" as="geometry">
            <Array as="points">
              <mxPoint x="1167" y="228" />
              <mxPoint x="1167" y="253" />
            </Array>
          </mxGeometry>
        </mxCell>
        <mxCell id="wRMrHnPXwIYJQ3hWMCE_-43" value="" style="curved=1;startArrow=none;endArrow=block;exitX=0.04;exitY=1;entryX=0.29;entryY=0;rounded=0;" edge="1" parent="1" source="wRMrHnPXwIYJQ3hWMCE_-25" target="wRMrHnPXwIYJQ3hWMCE_-3">
          <mxGeometry relative="1" as="geometry">
            <Array as="points">
              <mxPoint x="671" y="228" />
              <mxPoint x="671" y="506" />
            </Array>
          </mxGeometry>
        </mxCell>
        <mxCell id="wRMrHnPXwIYJQ3hWMCE_-44" value="" style="curved=1;startArrow=none;endArrow=circle;endFill=0;exitX=0.5;exitY=1;entryX=0.5;entryY=0;rounded=0;" edge="1" parent="1" source="wRMrHnPXwIYJQ3hWMCE_-3" target="wRMrHnPXwIYJQ3hWMCE_-28">
          <mxGeometry relative="1" as="geometry">
            <Array as="points" />
          </mxGeometry>
        </mxCell>
        <mxCell id="wRMrHnPXwIYJQ3hWMCE_-45" value="" style="curved=1;startArrow=none;endArrow=circle;endFill=0;exitX=0.69;exitY=1;entryX=1;entryY=0.37;rounded=0;" edge="1" parent="1" source="wRMrHnPXwIYJQ3hWMCE_-8" target="wRMrHnPXwIYJQ3hWMCE_-33">
          <mxGeometry relative="1" as="geometry">
            <Array as="points">
              <mxPoint x="1583" y="456" />
              <mxPoint x="1583" y="506" />
            </Array>
          </mxGeometry>
        </mxCell>
        <mxCell id="wRMrHnPXwIYJQ3hWMCE_-46" value="" style="curved=1;startArrow=circle;startFill=0;endArrow=block;exitX=0.5;exitY=1;entryX=0.65;entryY=0;rounded=0;" edge="1" parent="1" source="wRMrHnPXwIYJQ3hWMCE_-27" target="wRMrHnPXwIYJQ3hWMCE_-8">
          <mxGeometry relative="1" as="geometry">
            <Array as="points">
              <mxPoint x="1523" y="253" />
            </Array>
          </mxGeometry>
        </mxCell>
        <mxCell id="wRMrHnPXwIYJQ3hWMCE_-47" value="" style="curved=1;startArrow=none;endArrow=block;exitX=0.27;exitY=1;entryX=0;entryY=0.36;rounded=0;" edge="1" parent="1" source="wRMrHnPXwIYJQ3hWMCE_-8" target="wRMrHnPXwIYJQ3hWMCE_-18">
          <mxGeometry relative="1" as="geometry">
            <Array as="points">
              <mxPoint x="981" y="456" />
              <mxPoint x="981" y="506" />
            </Array>
          </mxGeometry>
        </mxCell>
      </root>
    </mxGraphModel>
  </diagram>
  <diagram id="xHVkIz8PMn7jExC9JjJN" name="Page-7">
    <mxGraphModel dx="2653" dy="1182" grid="1" gridSize="10" guides="1" tooltips="1" connect="1" arrows="1" fold="1" page="1" pageScale="1" pageWidth="827" pageHeight="1169" math="0" shadow="0">
      <root>
        <mxCell id="0" />
        <mxCell id="1" parent="0" />
        <mxCell id="epyhvEnyOOD7cbZfV39v-1" value="Hexagon GIS Tools" style="whiteSpace=wrap;strokeWidth=2;" vertex="1" parent="1">
          <mxGeometry x="96" y="556" width="330" height="203" as="geometry" />
        </mxCell>
        <mxCell id="epyhvEnyOOD7cbZfV39v-2" value="On-Site QC Team" style="whiteSpace=wrap;strokeWidth=2;" vertex="1" parent="1">
          <mxGeometry x="20" y="149" width="482" height="104" as="geometry" />
        </mxCell>
        <mxCell id="epyhvEnyOOD7cbZfV39v-3" value="On-Prem Data Center - Active-Active HA" style="whiteSpace=wrap;strokeWidth=2;" vertex="1" parent="1">
          <mxGeometry x="522" y="20" width="1739" height="868" as="geometry" />
        </mxCell>
        <mxCell id="epyhvEnyOOD7cbZfV39v-4" value="ArcGIS Enterprise Cluster - Node 2" style="whiteSpace=wrap;strokeWidth=2;verticalAlign=top;" vertex="1" parent="1">
          <mxGeometry x="848" y="581" width="1092" height="153" as="geometry" />
        </mxCell>
        <mxCell id="epyhvEnyOOD7cbZfV39v-5" value="Portal for ArcGIS" style="fillColor=none;strokeColor=none;" vertex="1" overrideArrowHead="circle" parent="epyhvEnyOOD7cbZfV39v-4">
          <mxGeometry x="43" y="58" width="179" height="54" as="geometry" />
        </mxCell>
        <mxCell id="epyhvEnyOOD7cbZfV39v-6" value="ArcGIS Server &#xa;(Web GIS)" style="fillColor=none;strokeColor=none;" vertex="1" overrideArrowHead="circle" parent="epyhvEnyOOD7cbZfV39v-4">
          <mxGeometry x="272" y="58" width="246" height="54" as="geometry" />
        </mxCell>
        <mxCell id="epyhvEnyOOD7cbZfV39v-7" value="ArcGIS Data Store" style="fillColor=none;strokeColor=none;" vertex="1" overrideArrowHead="circle" parent="epyhvEnyOOD7cbZfV39v-4">
          <mxGeometry x="568" y="58" width="187" height="54" as="geometry" />
        </mxCell>
        <mxCell id="epyhvEnyOOD7cbZfV39v-8" value="ArcGIS Geodatabase &#xa;(SQL/PostgreSQL)" style="fillColor=none;strokeColor=none;" vertex="1" overrideArrowHead="circle" parent="epyhvEnyOOD7cbZfV39v-4">
          <mxGeometry x="805" y="46" width="260" height="78" as="geometry" />
        </mxCell>
        <mxCell id="epyhvEnyOOD7cbZfV39v-9" value="ArcGIS Enterprise Cluster - Node 1" style="whiteSpace=wrap;strokeWidth=2;verticalAlign=top;" vertex="1" parent="1">
          <mxGeometry x="557" y="328" width="1092" height="153" as="geometry" />
        </mxCell>
        <mxCell id="epyhvEnyOOD7cbZfV39v-10" value="Portal for ArcGIS" style="fillColor=none;strokeColor=none;" vertex="1" overrideArrowHead="circle" parent="epyhvEnyOOD7cbZfV39v-9">
          <mxGeometry x="43" y="58" width="179" height="54" as="geometry" />
        </mxCell>
        <mxCell id="epyhvEnyOOD7cbZfV39v-11" value="ArcGIS Server &#xa;(Web GIS)" style="fillColor=none;strokeColor=none;" vertex="1" overrideArrowHead="circle" parent="epyhvEnyOOD7cbZfV39v-9">
          <mxGeometry x="272" y="58" width="246" height="54" as="geometry" />
        </mxCell>
        <mxCell id="epyhvEnyOOD7cbZfV39v-12" value="ArcGIS Data Store" style="fillColor=none;strokeColor=none;" vertex="1" overrideArrowHead="circle" parent="epyhvEnyOOD7cbZfV39v-9">
          <mxGeometry x="568" y="58" width="187" height="54" as="geometry" />
        </mxCell>
        <mxCell id="epyhvEnyOOD7cbZfV39v-13" value="ArcGIS Geodatabase &#xa;(SQL/PostgreSQL)" style="fillColor=none;strokeColor=none;" vertex="1" overrideArrowHead="circle" parent="epyhvEnyOOD7cbZfV39v-9">
          <mxGeometry x="805" y="46" width="260" height="78" as="geometry" />
        </mxCell>
        <mxCell id="epyhvEnyOOD7cbZfV39v-14" value="Field Workers" style="whiteSpace=wrap;strokeWidth=2;" vertex="1" parent="1">
          <mxGeometry x="2567" y="303" width="1105" height="203" as="geometry" />
        </mxCell>
        <mxCell id="epyhvEnyOOD7cbZfV39v-15" value="Esri Disaster Recovery Cloud - Hosted" style="whiteSpace=wrap;strokeWidth=2;" vertex="1" parent="1">
          <mxGeometry x="2310" y="556" width="1583" height="203" as="geometry" />
        </mxCell>
        <mxCell id="epyhvEnyOOD7cbZfV39v-16" value="ArcGIS Field Maps" style="fillColor=none;strokeColor=none;" vertex="1" parent="1">
          <mxGeometry x="2650" y="682" width="187" height="54" as="geometry" />
        </mxCell>
        <mxCell id="epyhvEnyOOD7cbZfV39v-17" value="Survey123" style="fillColor=none;strokeColor=none;" vertex="1" parent="1">
          <mxGeometry x="2840" y="670" width="132" height="54" as="geometry" />
        </mxCell>
        <mxCell id="epyhvEnyOOD7cbZfV39v-18" value="ArcGIS Dashboards" style="fillColor=none;strokeColor=none;" vertex="1" parent="1">
          <mxGeometry x="3200" y="684" width="192" height="54" as="geometry" />
        </mxCell>
        <mxCell id="epyhvEnyOOD7cbZfV39v-19" value="Replicate On-Prem to Cloud DR" style="fillColor=none;strokeColor=none;" vertex="1" parent="1">
          <mxGeometry x="2330" y="658" width="260" height="78" as="geometry" />
        </mxCell>
        <mxCell id="epyhvEnyOOD7cbZfV39v-20" value="ArcGIS Server (Web GIS)" style="fillColor=none;strokeColor=none;" vertex="1" overrideArrowHead="circle" parent="1">
          <mxGeometry x="3370" y="680" width="232" height="54" as="geometry" />
        </mxCell>
        <mxCell id="epyhvEnyOOD7cbZfV39v-21" value="Cloud Geodatabase (SQL/PostgreSQL)" style="fillColor=none;strokeColor=none;" vertex="1" overrideArrowHead="circle" parent="1">
          <mxGeometry x="3602" y="668" width="260" height="78" as="geometry" />
        </mxCell>
        <mxCell id="epyhvEnyOOD7cbZfV39v-22" value="Mobile Workers" style="fillColor=none;strokeColor=none;" vertex="1" parent="1">
          <mxGeometry x="2739" y="378" width="169" height="54" as="geometry" />
        </mxCell>
        <mxCell id="epyhvEnyOOD7cbZfV39v-23" value="Field Devices" style="fillColor=none;strokeColor=none;" vertex="1" overrideArrowHead="circle" parent="1">
          <mxGeometry x="2958" y="378" width="154" height="54" as="geometry" />
        </mxCell>
        <mxCell id="epyhvEnyOOD7cbZfV39v-24" value="GPS Collectors" style="fillColor=none;strokeColor=none;" vertex="1" overrideArrowHead="circle" parent="1">
          <mxGeometry x="3163" y="378" width="164" height="54" as="geometry" />
        </mxCell>
        <mxCell id="epyhvEnyOOD7cbZfV39v-25" value="Field Maps/Survey123&#xa;(Offline Mode)" style="fillColor=none;strokeColor=none;" vertex="1" overrideArrowHead="circle" parent="1">
          <mxGeometry x="3377" y="366" width="260" height="78" as="geometry" />
        </mxCell>
        <mxCell id="epyhvEnyOOD7cbZfV39v-26" value="Secure Proxy (DMZ Layer)" style="fillColor=none;strokeColor=none;" vertex="1" parent="1">
          <mxGeometry x="1479" y="174" width="242" height="54" as="geometry" />
        </mxCell>
        <mxCell id="epyhvEnyOOD7cbZfV39v-27" value="Web Adaptor (IIS) - DMZ" style="fillColor=none;strokeColor=none;" vertex="1" parent="1">
          <mxGeometry x="1484" y="45" width="231" height="54" as="geometry" />
        </mxCell>
        <mxCell id="epyhvEnyOOD7cbZfV39v-28" value="On-Prem NAS/SAN Storage" style="fillColor=none;strokeColor=none;" vertex="1" parent="1">
          <mxGeometry x="1771" y="174" width="249" height="54" as="geometry" />
        </mxCell>
        <mxCell id="epyhvEnyOOD7cbZfV39v-29" value="Backup Sync" style="fillColor=none;strokeColor=none;" vertex="1" parent="1">
          <mxGeometry x="1320" y="809" width="148" height="54" as="geometry" />
        </mxCell>
        <mxCell id="epyhvEnyOOD7cbZfV39v-30" value="Backup Portal" style="fillColor=none;strokeColor=none;" vertex="1" overrideArrowHead="circle" parent="1">
          <mxGeometry x="1518" y="809" width="158" height="54" as="geometry" />
        </mxCell>
        <mxCell id="epyhvEnyOOD7cbZfV39v-31" value="ArcGIS Failover Server" style="fillColor=none;strokeColor=none;" vertex="1" overrideArrowHead="circle" parent="1">
          <mxGeometry x="1726" y="809" width="219" height="54" as="geometry" />
        </mxCell>
        <mxCell id="epyhvEnyOOD7cbZfV39v-32" value="Secondary Geodatabase" style="fillColor=none;strokeColor=none;" vertex="1" overrideArrowHead="circle" parent="1">
          <mxGeometry x="1995" y="809" width="231" height="54" as="geometry" />
        </mxCell>
        <mxCell id="epyhvEnyOOD7cbZfV39v-33" value="QC Workstations" style="fillColor=none;strokeColor=none;" vertex="1" parent="1">
          <mxGeometry x="55" y="174" width="177" height="54" as="geometry" />
        </mxCell>
        <mxCell id="epyhvEnyOOD7cbZfV39v-34" value="ArcGIS Pro for QC" style="fillColor=none;strokeColor=none;" vertex="1" parent="1">
          <mxGeometry x="282" y="174" width="185" height="54" as="geometry" />
        </mxCell>
        <mxCell id="epyhvEnyOOD7cbZfV39v-35" value="Export Data (Shapefile/GeoJSON)" style="fillColor=none;strokeColor=none;" vertex="1" parent="1">
          <mxGeometry x="131" y="656" width="260" height="78" as="geometry" />
        </mxCell>
        <mxCell id="epyhvEnyOOD7cbZfV39v-36" value="" style="curved=1;startArrow=circle;startFill=0;endArrow=circle;endFill=0;exitX=0.22;exitY=0.99;entryX=0.39;entryY=-0.01;rounded=0;" edge="1" parent="1" source="epyhvEnyOOD7cbZfV39v-22" target="epyhvEnyOOD7cbZfV39v-16">
          <mxGeometry relative="1" as="geometry">
            <Array as="points">
              <mxPoint x="2647" y="506" />
              <mxPoint x="2647" y="556" />
            </Array>
          </mxGeometry>
        </mxCell>
        <mxCell id="epyhvEnyOOD7cbZfV39v-37" value="" style="curved=1;startArrow=none;endArrow=circle;endFill=0;exitX=0.55;exitY=0.99;entryX=0.36;entryY=-0.01;rounded=0;" edge="1" parent="1" source="epyhvEnyOOD7cbZfV39v-22" target="epyhvEnyOOD7cbZfV39v-17">
          <mxGeometry relative="1" as="geometry">
            <Array as="points">
              <mxPoint x="2856" y="506" />
              <mxPoint x="2856" y="556" />
            </Array>
          </mxGeometry>
        </mxCell>
        <mxCell id="epyhvEnyOOD7cbZfV39v-38" value="" style="curved=1;startArrow=none;endArrow=circle;endFill=0;exitX=0.89;exitY=0.99;entryX=0.4;entryY=-0.01;rounded=0;" edge="1" parent="1" source="epyhvEnyOOD7cbZfV39v-22" target="epyhvEnyOOD7cbZfV39v-18">
          <mxGeometry relative="1" as="geometry">
            <Array as="points">
              <mxPoint x="3068" y="506" />
              <mxPoint x="3068" y="556" />
            </Array>
          </mxGeometry>
        </mxCell>
        <mxCell id="epyhvEnyOOD7cbZfV39v-39" value="" style="curved=1;startArrow=none;endArrow=circle;endFill=0;exitX=1;exitY=0.84;entryX=1;entryY=0.29;rounded=0;" edge="1" parent="1" source="epyhvEnyOOD7cbZfV39v-22" target="epyhvEnyOOD7cbZfV39v-19">
          <mxGeometry relative="1" as="geometry">
            <Array as="points">
              <mxPoint x="3281" y="506" />
              <mxPoint x="3281" y="556" />
            </Array>
          </mxGeometry>
        </mxCell>
        <mxCell id="epyhvEnyOOD7cbZfV39v-40" value="" style="curved=1;startArrow=circle;startFill=0;endArrow=circle;endFill=0;exitX=0.5;exitY=1;entryX=0.5;entryY=0;rounded=0;" edge="1" parent="1" source="epyhvEnyOOD7cbZfV39v-27" target="epyhvEnyOOD7cbZfV39v-26">
          <mxGeometry relative="1" as="geometry">
            <Array as="points" />
          </mxGeometry>
        </mxCell>
        <mxCell id="epyhvEnyOOD7cbZfV39v-41" value="" style="curved=1;startArrow=none;endArrow=block;exitX=0;exitY=0.32;entryX=0.74;entryY=1;rounded=0;" edge="1" parent="1" source="epyhvEnyOOD7cbZfV39v-19" target="epyhvEnyOOD7cbZfV39v-9">
          <mxGeometry relative="1" as="geometry">
            <Array as="points">
              <mxPoint x="1447" y="556" />
              <mxPoint x="1447" y="506" />
            </Array>
          </mxGeometry>
        </mxCell>
        <mxCell id="epyhvEnyOOD7cbZfV39v-42" value="" style="curved=1;startArrow=none;endArrow=block;exitX=0.31;exitY=1;entryX=0.11;entryY=0;rounded=0;" edge="1" parent="1" source="epyhvEnyOOD7cbZfV39v-9" target="epyhvEnyOOD7cbZfV39v-4">
          <mxGeometry relative="1" as="geometry">
            <Array as="points">
              <mxPoint x="823" y="506" />
              <mxPoint x="823" y="556" />
            </Array>
          </mxGeometry>
        </mxCell>
        <mxCell id="epyhvEnyOOD7cbZfV39v-43" value="" style="curved=1;startArrow=none;endArrow=block;exitX=0;exitY=0.9;entryX=0.64;entryY=0;rounded=0;" edge="1" parent="1" source="epyhvEnyOOD7cbZfV39v-26" target="epyhvEnyOOD7cbZfV39v-9">
          <mxGeometry relative="1" as="geometry">
            <Array as="points">
              <mxPoint x="1309" y="253" />
              <mxPoint x="1309" y="303" />
            </Array>
          </mxGeometry>
        </mxCell>
        <mxCell id="epyhvEnyOOD7cbZfV39v-44" value="" style="curved=1;startArrow=none;endArrow=block;exitX=0.79;exitY=1;entryX=0.74;entryY=0;rounded=0;" edge="1" parent="1" source="epyhvEnyOOD7cbZfV39v-26" target="epyhvEnyOOD7cbZfV39v-4">
          <mxGeometry relative="1" as="geometry">
            <Array as="points">
              <mxPoint x="1738" y="253" />
              <mxPoint x="1738" y="556" />
            </Array>
          </mxGeometry>
        </mxCell>
        <mxCell id="epyhvEnyOOD7cbZfV39v-45" value="" style="curved=1;startArrow=none;endArrow=circle;endFill=0;exitX=0.5;exitY=1;entryX=0.5;entryY=0;rounded=0;" edge="1" parent="1" source="epyhvEnyOOD7cbZfV39v-4" target="epyhvEnyOOD7cbZfV39v-29">
          <mxGeometry relative="1" as="geometry">
            <Array as="points" />
          </mxGeometry>
        </mxCell>
        <mxCell id="epyhvEnyOOD7cbZfV39v-46" value="" style="curved=1;startArrow=none;endArrow=circle;endFill=0;exitX=0.35;exitY=1;entryX=1;entryY=0.22;rounded=0;" edge="1" parent="1" source="epyhvEnyOOD7cbZfV39v-9" target="epyhvEnyOOD7cbZfV39v-35">
          <mxGeometry relative="1" as="geometry">
            <Array as="points">
              <mxPoint x="886" y="506" />
              <mxPoint x="886" y="556" />
            </Array>
          </mxGeometry>
        </mxCell>
        <mxCell id="epyhvEnyOOD7cbZfV39v-47" value="" style="curved=1;startArrow=circle;startFill=0;endArrow=block;exitX=0.5;exitY=1;entryX=1;entryY=0.04;rounded=0;" edge="1" parent="1" source="epyhvEnyOOD7cbZfV39v-28" target="epyhvEnyOOD7cbZfV39v-9">
          <mxGeometry relative="1" as="geometry">
            <Array as="points">
              <mxPoint x="1895" y="303" />
            </Array>
          </mxGeometry>
        </mxCell>
        <mxCell id="epyhvEnyOOD7cbZfV39v-48" value="" style="curved=1;startArrow=none;endArrow=block;exitX=0.72;exitY=1;entryX=0;entryY=0.33;rounded=0;" edge="1" parent="1" source="epyhvEnyOOD7cbZfV39v-9" target="epyhvEnyOOD7cbZfV39v-19">
          <mxGeometry relative="1" as="geometry">
            <Array as="points">
              <mxPoint x="1427" y="506" />
              <mxPoint x="1427" y="556" />
            </Array>
          </mxGeometry>
        </mxCell>
        <mxCell id="epyhvEnyOOD7cbZfV39v-49" value="" style="curved=1;startArrow=circle;startFill=0;endArrow=block;exitX=0.5;exitY=1;entryX=0.3;entryY=0;rounded=0;" edge="1" parent="1" source="epyhvEnyOOD7cbZfV39v-33" target="epyhvEnyOOD7cbZfV39v-9">
          <mxGeometry relative="1" as="geometry">
            <Array as="points">
              <mxPoint x="143" y="253" />
              <mxPoint x="813" y="278" />
              <mxPoint x="813" y="303" />
            </Array>
          </mxGeometry>
        </mxCell>
        <mxCell id="epyhvEnyOOD7cbZfV39v-50" value="" style="curved=1;startArrow=circle;startFill=0;endArrow=block;exitX=0.5;exitY=1;entryX=0.31;entryY=0;rounded=0;" edge="1" parent="1" source="epyhvEnyOOD7cbZfV39v-34" target="epyhvEnyOOD7cbZfV39v-9">
          <mxGeometry relative="1" as="geometry">
            <Array as="points">
              <mxPoint x="374" y="253" />
              <mxPoint x="833" y="278" />
              <mxPoint x="833" y="303" />
            </Array>
          </mxGeometry>
        </mxCell>
      </root>
    </mxGraphModel>
  </diagram>
  <diagram id="KmoAeOIa7CUBNCNHgUk1" name="Page-8">
    <mxGraphModel dx="1837" dy="1987" grid="1" gridSize="10" guides="1" tooltips="1" connect="1" arrows="1" fold="1" page="1" pageScale="1" pageWidth="827" pageHeight="1169" math="0" shadow="0">
      <root>
        <mxCell id="0" />
        <mxCell id="1" parent="0" />
        <mxCell id="J-Z2_h0Rd5mLIIRgKpj5-1" value="Hexagon GIS Tools" style="whiteSpace=wrap;strokeWidth=2;" vertex="1" parent="1">
          <mxGeometry x="366" y="440" width="330" height="153" as="geometry" />
        </mxCell>
        <mxCell id="J-Z2_h0Rd5mLIIRgKpj5-2" value="On-Site QC Team" style="whiteSpace=wrap;strokeWidth=2;" vertex="1" parent="1">
          <mxGeometry x="716" y="440" width="482" height="153" as="geometry" />
        </mxCell>
        <mxCell id="J-Z2_h0Rd5mLIIRgKpj5-3" value="External Data Sources" style="whiteSpace=wrap;strokeWidth=2;" vertex="1" parent="1">
          <mxGeometry x="4202" y="29" width="578" height="153" as="geometry" />
        </mxCell>
        <mxCell id="J-Z2_h0Rd5mLIIRgKpj5-4" value="On-Prem Data Center - Active-Active HA" style="whiteSpace=wrap;strokeWidth=2;" vertex="1" parent="1">
          <mxGeometry x="1693" y="-100" width="2489" height="922" as="geometry" />
        </mxCell>
        <mxCell id="J-Z2_h0Rd5mLIIRgKpj5-5" value="Backup ArcGIS Enterprise" style="whiteSpace=wrap;strokeWidth=2;verticalAlign=top;" vertex="1" parent="1">
          <mxGeometry x="1728" y="643" width="778" height="129" as="geometry" />
        </mxCell>
        <mxCell id="J-Z2_h0Rd5mLIIRgKpj5-6" value="Backup Portal" style="fillColor=none;strokeColor=none;" vertex="1" overrideArrowHead="circle" parent="J-Z2_h0Rd5mLIIRgKpj5-5">
          <mxGeometry x="43" y="46" width="158" height="54" as="geometry" />
        </mxCell>
        <mxCell id="J-Z2_h0Rd5mLIIRgKpj5-7" value="ArcGIS Failover Server" style="fillColor=none;strokeColor=none;" vertex="1" overrideArrowHead="circle" parent="J-Z2_h0Rd5mLIIRgKpj5-5">
          <mxGeometry x="251" y="46" width="219" height="54" as="geometry" />
        </mxCell>
        <mxCell id="J-Z2_h0Rd5mLIIRgKpj5-8" value="Secondary Geodatabase" style="fillColor=none;strokeColor=none;" vertex="1" overrideArrowHead="circle" parent="J-Z2_h0Rd5mLIIRgKpj5-5">
          <mxGeometry x="520" y="46" width="231" height="54" as="geometry" />
        </mxCell>
        <mxCell id="J-Z2_h0Rd5mLIIRgKpj5-9" value="QC ArcGIS Enterprise Cluster" style="whiteSpace=wrap;strokeWidth=2;" vertex="1" parent="1">
          <mxGeometry x="2541" y="465" width="1167" height="332" as="geometry" />
        </mxCell>
        <mxCell id="J-Z2_h0Rd5mLIIRgKpj5-10" value="Production ArcGIS Enterprise Cluster" style="whiteSpace=wrap;strokeWidth=2;" vertex="1" parent="1">
          <mxGeometry x="3728" y="54" width="434" height="743" as="geometry" />
        </mxCell>
        <mxCell id="J-Z2_h0Rd5mLIIRgKpj5-11" value="Field Workers" style="whiteSpace=wrap;strokeWidth=2;" vertex="1" parent="1">
          <mxGeometry x="4800" y="29" width="967" height="153" as="geometry" />
        </mxCell>
        <mxCell id="J-Z2_h0Rd5mLIIRgKpj5-12" value="Esri Disaster Recovery Cloud - Hosted" style="whiteSpace=wrap;strokeWidth=2;" vertex="1" parent="1">
          <mxGeometry x="90" y="29" width="1583" height="153" as="geometry" />
        </mxCell>
        <mxCell id="J-Z2_h0Rd5mLIIRgKpj5-13" value="ArcGIS Field Maps" style="fillColor=none;strokeColor=none;" vertex="1" overrideArrowHead="circle" parent="1">
          <mxGeometry x="125" y="91" width="187" height="54" as="geometry" />
        </mxCell>
        <mxCell id="J-Z2_h0Rd5mLIIRgKpj5-14" value="Survey123" style="fillColor=none;strokeColor=none;" vertex="1" overrideArrowHead="circle" parent="1">
          <mxGeometry x="362" y="91" width="132" height="54" as="geometry" />
        </mxCell>
        <mxCell id="J-Z2_h0Rd5mLIIRgKpj5-15" value="ArcGIS Dashboards" style="fillColor=none;strokeColor=none;" vertex="1" overrideArrowHead="circle" parent="1">
          <mxGeometry x="544" y="91" width="192" height="54" as="geometry" />
        </mxCell>
        <mxCell id="J-Z2_h0Rd5mLIIRgKpj5-16" value="Replicate Production to Cloud DR" style="fillColor=none;strokeColor=none;" vertex="1" parent="1">
          <mxGeometry x="760" y="20" width="260" height="78" as="geometry" />
        </mxCell>
        <mxCell id="J-Z2_h0Rd5mLIIRgKpj5-17" value="ArcGIS Server (Web GIS)" style="fillColor=none;strokeColor=none;" vertex="1" overrideArrowHead="circle" parent="1">
          <mxGeometry x="1096" y="91" width="232" height="54" as="geometry" />
        </mxCell>
        <mxCell id="J-Z2_h0Rd5mLIIRgKpj5-18" value="Cloud Geodatabase (SQL/PostgreSQL)" style="fillColor=none;strokeColor=none;" vertex="1" overrideArrowHead="circle" parent="1">
          <mxGeometry x="1378" y="79" width="260" height="78" as="geometry" />
        </mxCell>
        <mxCell id="J-Z2_h0Rd5mLIIRgKpj5-19" value="Mobile Workers" style="fillColor=none;strokeColor=none;" vertex="1" parent="1">
          <mxGeometry x="4835" y="91" width="169" height="54" as="geometry" />
        </mxCell>
        <mxCell id="J-Z2_h0Rd5mLIIRgKpj5-20" value="Field Devices" style="fillColor=none;strokeColor=none;" vertex="1" overrideArrowHead="circle" parent="1">
          <mxGeometry x="5054" y="91" width="154" height="54" as="geometry" />
        </mxCell>
        <mxCell id="J-Z2_h0Rd5mLIIRgKpj5-21" value="GPS Collectors" style="fillColor=none;strokeColor=none;" vertex="1" overrideArrowHead="circle" parent="1">
          <mxGeometry x="5258" y="91" width="164" height="54" as="geometry" />
        </mxCell>
        <mxCell id="J-Z2_h0Rd5mLIIRgKpj5-22" value="Field Maps/Survey123&#xa;(Offline Mode)" style="fillColor=none;strokeColor=none;" vertex="1" overrideArrowHead="circle" parent="1">
          <mxGeometry x="5473" y="79" width="260" height="78" as="geometry" />
        </mxCell>
        <mxCell id="J-Z2_h0Rd5mLIIRgKpj5-23" value="Secure Proxy (DMZ Layer)" style="fillColor=none;strokeColor=none;" vertex="1" parent="1">
          <mxGeometry x="3763" y="91" width="242" height="54" as="geometry" />
        </mxCell>
        <mxCell id="J-Z2_h0Rd5mLIIRgKpj5-24" value="Store Imagery/Spatial Data" style="fillColor=none;strokeColor=none;" vertex="1" parent="1">
          <mxGeometry x="3852" y="232" width="255" height="54" as="geometry" />
        </mxCell>
        <mxCell id="J-Z2_h0Rd5mLIIRgKpj5-25" value="ArcGIS Server &#xa;(Web GIS)" style="fillColor=none;strokeColor=none;" vertex="1" parent="1">
          <mxGeometry x="3796" y="336" width="246" height="54" as="geometry" />
        </mxCell>
        <mxCell id="J-Z2_h0Rd5mLIIRgKpj5-26" value="ArcGIS Data Store" style="fillColor=none;strokeColor=none;" vertex="1" parent="1">
          <mxGeometry x="3904" y="502" width="187" height="54" as="geometry" />
        </mxCell>
        <mxCell id="J-Z2_h0Rd5mLIIRgKpj5-27" value="ArcGIS Geodatabase &#xa;(SQL/PostgreSQL)" style="fillColor=none;strokeColor=none;" vertex="1" parent="1">
          <mxGeometry x="3867" y="669" width="260" height="78" as="geometry" />
        </mxCell>
        <mxCell id="J-Z2_h0Rd5mLIIRgKpj5-28" value="Load Balancer (QC)" style="fillColor=none;strokeColor=none;" vertex="1" parent="1">
          <mxGeometry x="2885" y="502" width="198" height="54" as="geometry" />
        </mxCell>
        <mxCell id="J-Z2_h0Rd5mLIIRgKpj5-29" value="Data Validation and Editing" style="fillColor=none;strokeColor=none;" vertex="1" parent="1">
          <mxGeometry x="2576" y="681" width="255" height="54" as="geometry" />
        </mxCell>
        <mxCell id="J-Z2_h0Rd5mLIIRgKpj5-30" value="ArcGIS Server &#xa;(Web GIS)" style="fillColor=none;strokeColor=none;" vertex="1" parent="1">
          <mxGeometry x="2881" y="681" width="246" height="54" as="geometry" />
        </mxCell>
        <mxCell id="J-Z2_h0Rd5mLIIRgKpj5-31" value="ArcGIS Data Store" style="fillColor=none;strokeColor=none;" vertex="1" overrideArrowHead="circle" parent="1">
          <mxGeometry x="3177" y="681" width="187" height="54" as="geometry" />
        </mxCell>
        <mxCell id="J-Z2_h0Rd5mLIIRgKpj5-32" value="ArcGIS Geodatabase &#xa;(SQL/PostgreSQL)" style="fillColor=none;strokeColor=none;" vertex="1" overrideArrowHead="circle" parent="1">
          <mxGeometry x="3413" y="669" width="260" height="78" as="geometry" />
        </mxCell>
        <mxCell id="J-Z2_h0Rd5mLIIRgKpj5-33" value="Web Adaptor (IIS) - DMZ" style="fillColor=none;strokeColor=none;" vertex="1" parent="1">
          <mxGeometry x="3769" y="-75" width="231" height="54" as="geometry" />
        </mxCell>
        <mxCell id="J-Z2_h0Rd5mLIIRgKpj5-34" value="On-Prem NAS/SAN Storage" style="fillColor=none;strokeColor=none;" vertex="1" parent="1">
          <mxGeometry x="2586" y="91" width="249" height="54" as="geometry" />
        </mxCell>
        <mxCell id="J-Z2_h0Rd5mLIIRgKpj5-35" value="External GIS Systems" style="fillColor=none;strokeColor=none;" vertex="1" parent="1">
          <mxGeometry x="4536" y="91" width="209" height="54" as="geometry" />
        </mxCell>
        <mxCell id="J-Z2_h0Rd5mLIIRgKpj5-36" value="Third-Party Data Providers" style="fillColor=none;strokeColor=none;" vertex="1" parent="1">
          <mxGeometry x="4237" y="91" width="249" height="54" as="geometry" />
        </mxCell>
        <mxCell id="J-Z2_h0Rd5mLIIRgKpj5-37" value="QC Workstations" style="fillColor=none;strokeColor=none;" vertex="1" parent="1">
          <mxGeometry x="986" y="502" width="177" height="54" as="geometry" />
        </mxCell>
        <mxCell id="J-Z2_h0Rd5mLIIRgKpj5-38" value="ArcGIS Pro for QC" style="fillColor=none;strokeColor=none;" vertex="1" parent="1">
          <mxGeometry x="751" y="502" width="185" height="54" as="geometry" />
        </mxCell>
        <mxCell id="J-Z2_h0Rd5mLIIRgKpj5-39" value="Export Data (Shapefile/GeoJSON)" style="fillColor=none;strokeColor=none;" vertex="1" parent="1">
          <mxGeometry x="401" y="490" width="260" height="78" as="geometry" />
        </mxCell>
        <mxCell id="J-Z2_h0Rd5mLIIRgKpj5-40" value="" style="curved=1;startArrow=circle;startFill=0;endArrow=circle;endFill=0;exitX=0.4;exitY=1;entryX=0.71;entryY=0;rounded=0;" edge="1" parent="1" source="J-Z2_h0Rd5mLIIRgKpj5-19" target="J-Z2_h0Rd5mLIIRgKpj5-24">
          <mxGeometry relative="1" as="geometry">
            <Array as="points">
              <mxPoint x="4880" y="182" />
              <mxPoint x="4081" y="207" />
            </Array>
          </mxGeometry>
        </mxCell>
        <mxCell id="J-Z2_h0Rd5mLIIRgKpj5-41" value="" style="curved=1;startArrow=none;endArrow=circle;endFill=0;exitX=1;exitY=0.74;entryX=0.97;entryY=0;rounded=0;" edge="1" parent="1" source="J-Z2_h0Rd5mLIIRgKpj5-19" target="J-Z2_h0Rd5mLIIRgKpj5-25">
          <mxGeometry relative="1" as="geometry">
            <Array as="points">
              <mxPoint x="5334" y="182" />
              <mxPoint x="4142" y="207" />
              <mxPoint x="4142" y="311" />
            </Array>
          </mxGeometry>
        </mxCell>
        <mxCell id="J-Z2_h0Rd5mLIIRgKpj5-42" value="" style="curved=1;startArrow=circle;startFill=0;endArrow=block;exitX=0.5;exitY=1;entryX=0.66;entryY=0;rounded=0;" edge="1" parent="1" source="J-Z2_h0Rd5mLIIRgKpj5-35" target="J-Z2_h0Rd5mLIIRgKpj5-24">
          <mxGeometry relative="1" as="geometry">
            <Array as="points">
              <mxPoint x="4641" y="182" />
              <mxPoint x="4061" y="207" />
            </Array>
          </mxGeometry>
        </mxCell>
        <mxCell id="J-Z2_h0Rd5mLIIRgKpj5-43" value="" style="curved=1;startArrow=circle;startFill=0;endArrow=block;exitX=0.5;exitY=1;entryX=0.62;entryY=0;rounded=0;" edge="1" parent="1" source="J-Z2_h0Rd5mLIIRgKpj5-36" target="J-Z2_h0Rd5mLIIRgKpj5-24">
          <mxGeometry relative="1" as="geometry">
            <Array as="points">
              <mxPoint x="4362" y="182" />
              <mxPoint x="4041" y="207" />
            </Array>
          </mxGeometry>
        </mxCell>
        <mxCell id="J-Z2_h0Rd5mLIIRgKpj5-44" value="" style="curved=1;startArrow=circle;startFill=0;endArrow=block;exitX=1;exitY=0.79;entryX=0.5;entryY=0;rounded=0;" edge="1" parent="1" source="J-Z2_h0Rd5mLIIRgKpj5-16" target="J-Z2_h0Rd5mLIIRgKpj5-24">
          <mxGeometry relative="1" as="geometry">
            <Array as="points">
              <mxPoint x="1285" y="182" />
              <mxPoint x="3979" y="207" />
            </Array>
          </mxGeometry>
        </mxCell>
        <mxCell id="J-Z2_h0Rd5mLIIRgKpj5-45" value="" style="curved=1;startArrow=none;endArrow=block;exitX=0.5;exitY=1;entryX=0.63;entryY=0;rounded=0;" edge="1" parent="1" source="J-Z2_h0Rd5mLIIRgKpj5-24" target="J-Z2_h0Rd5mLIIRgKpj5-25">
          <mxGeometry relative="1" as="geometry">
            <Array as="points">
              <mxPoint x="3979" y="311" />
            </Array>
          </mxGeometry>
        </mxCell>
        <mxCell id="J-Z2_h0Rd5mLIIRgKpj5-46" value="" style="curved=1;startArrow=none;endArrow=circle;endFill=0;exitX=0.67;exitY=1;entryX=0.5;entryY=0;rounded=0;" edge="1" parent="1" source="J-Z2_h0Rd5mLIIRgKpj5-25" target="J-Z2_h0Rd5mLIIRgKpj5-26">
          <mxGeometry relative="1" as="geometry">
            <Array as="points">
              <mxPoint x="3997" y="415" />
            </Array>
          </mxGeometry>
        </mxCell>
        <mxCell id="J-Z2_h0Rd5mLIIRgKpj5-47" value="" style="curved=1;startArrow=none;endArrow=circle;endFill=0;exitX=0.5;exitY=1;entryX=0.5;entryY=-0.01;rounded=0;" edge="1" parent="1" source="J-Z2_h0Rd5mLIIRgKpj5-26" target="J-Z2_h0Rd5mLIIRgKpj5-27">
          <mxGeometry relative="1" as="geometry">
            <Array as="points" />
          </mxGeometry>
        </mxCell>
        <mxCell id="J-Z2_h0Rd5mLIIRgKpj5-48" value="" style="curved=1;startArrow=circle;startFill=0;endArrow=block;exitX=0.63;exitY=1;entryX=0.45;entryY=0;rounded=0;" edge="1" parent="1" source="J-Z2_h0Rd5mLIIRgKpj5-23" target="J-Z2_h0Rd5mLIIRgKpj5-24">
          <mxGeometry relative="1" as="geometry">
            <Array as="points">
              <mxPoint x="3956" y="182" />
              <mxPoint x="3956" y="207" />
            </Array>
          </mxGeometry>
        </mxCell>
        <mxCell id="J-Z2_h0Rd5mLIIRgKpj5-49" value="" style="curved=1;startArrow=none;endArrow=block;exitX=0.38;exitY=1;entryX=0.28;entryY=0;rounded=0;" edge="1" parent="1" source="J-Z2_h0Rd5mLIIRgKpj5-23" target="J-Z2_h0Rd5mLIIRgKpj5-25">
          <mxGeometry relative="1" as="geometry">
            <Array as="points">
              <mxPoint x="3817" y="182" />
              <mxPoint x="3817" y="311" />
            </Array>
          </mxGeometry>
        </mxCell>
        <mxCell id="J-Z2_h0Rd5mLIIRgKpj5-50" value="" style="curved=1;startArrow=circle;startFill=0;endArrow=block;exitX=1;exitY=0.62;entryX=0.33;entryY=0;rounded=0;" edge="1" parent="1" source="J-Z2_h0Rd5mLIIRgKpj5-34" target="J-Z2_h0Rd5mLIIRgKpj5-24">
          <mxGeometry relative="1" as="geometry">
            <Array as="points">
              <mxPoint x="3898" y="182" />
              <mxPoint x="3898" y="207" />
            </Array>
          </mxGeometry>
        </mxCell>
        <mxCell id="J-Z2_h0Rd5mLIIRgKpj5-51" value="" style="curved=1;startArrow=circle;startFill=0;endArrow=circle;endFill=0;exitX=0.22;exitY=1;entryX=0.68;entryY=-0.01;rounded=0;" edge="1" parent="1" source="J-Z2_h0Rd5mLIIRgKpj5-28" target="J-Z2_h0Rd5mLIIRgKpj5-29">
          <mxGeometry relative="1" as="geometry">
            <Array as="points">
              <mxPoint x="2854" y="593" />
              <mxPoint x="2854" y="618" />
            </Array>
          </mxGeometry>
        </mxCell>
        <mxCell id="J-Z2_h0Rd5mLIIRgKpj5-52" value="" style="curved=1;startArrow=none;endArrow=circle;endFill=0;exitX=0.54;exitY=1;entryX=0.5;entryY=-0.01;rounded=0;" edge="1" parent="1" source="J-Z2_h0Rd5mLIIRgKpj5-28" target="J-Z2_h0Rd5mLIIRgKpj5-30">
          <mxGeometry relative="1" as="geometry">
            <Array as="points">
              <mxPoint x="3004" y="593" />
            </Array>
          </mxGeometry>
        </mxCell>
        <mxCell id="J-Z2_h0Rd5mLIIRgKpj5-53" value="" style="curved=1;startArrow=circle;startFill=0;endArrow=block;exitX=0.5;exitY=1;entryX=0.5;entryY=-0.01;rounded=0;" edge="1" parent="1" source="J-Z2_h0Rd5mLIIRgKpj5-37" target="J-Z2_h0Rd5mLIIRgKpj5-29">
          <mxGeometry relative="1" as="geometry">
            <Array as="points">
              <mxPoint x="1075" y="593" />
              <mxPoint x="2703" y="618" />
            </Array>
          </mxGeometry>
        </mxCell>
        <mxCell id="J-Z2_h0Rd5mLIIRgKpj5-54" value="" style="curved=1;startArrow=circle;startFill=0;endArrow=block;exitX=0.5;exitY=1;entryX=0.4;entryY=-0.01;rounded=0;" edge="1" parent="1" source="J-Z2_h0Rd5mLIIRgKpj5-38" target="J-Z2_h0Rd5mLIIRgKpj5-29">
          <mxGeometry relative="1" as="geometry">
            <Array as="points">
              <mxPoint x="844" y="593" />
              <mxPoint x="2622" y="618" />
            </Array>
          </mxGeometry>
        </mxCell>
        <mxCell id="J-Z2_h0Rd5mLIIRgKpj5-55" value="" style="curved=1;startArrow=none;endArrow=circle;endFill=0;exitX=0.29;exitY=1;entryX=1;entryY=0.47;rounded=0;" edge="1" parent="1" source="J-Z2_h0Rd5mLIIRgKpj5-25" target="J-Z2_h0Rd5mLIIRgKpj5-39">
          <mxGeometry relative="1" as="geometry">
            <Array as="points">
              <mxPoint x="3818" y="415" />
              <mxPoint x="3818" y="465" />
            </Array>
          </mxGeometry>
        </mxCell>
        <mxCell id="J-Z2_h0Rd5mLIIRgKpj5-56" value="" style="curved=1;startArrow=circle;startFill=0;endArrow=block;exitX=0.5;exitY=1;entryX=0.5;entryY=0;rounded=0;" edge="1" parent="1" source="J-Z2_h0Rd5mLIIRgKpj5-33" target="J-Z2_h0Rd5mLIIRgKpj5-23">
          <mxGeometry relative="1" as="geometry">
            <Array as="points" />
          </mxGeometry>
        </mxCell>
        <mxCell id="J-Z2_h0Rd5mLIIRgKpj5-57" value="" style="curved=1;startArrow=none;endArrow=block;exitX=0.29;exitY=0;entryX=0;entryY=0.77;rounded=0;" edge="1" parent="1" source="J-Z2_h0Rd5mLIIRgKpj5-24" target="J-Z2_h0Rd5mLIIRgKpj5-16">
          <mxGeometry relative="1" as="geometry">
            <Array as="points">
              <mxPoint x="3878" y="207" />
              <mxPoint x="523" y="182" />
            </Array>
          </mxGeometry>
        </mxCell>
      </root>
    </mxGraphModel>
  </diagram>
  <diagram id="-6nitn7Ufuv8F0WmE6sX" name="Page-9">
    <mxGraphModel dx="2171" dy="967" grid="1" gridSize="10" guides="1" tooltips="1" connect="1" arrows="1" fold="1" page="1" pageScale="1" pageWidth="827" pageHeight="1169" math="0" shadow="0">
      <root>
        <mxCell id="0" />
        <mxCell id="1" parent="0" />
        <mxCell id="MKRzmSx__VpVy3L4rkY--1" value="External Data Sources" style="whiteSpace=wrap;strokeWidth=2;" vertex="1" parent="1">
          <mxGeometry x="2878" y="169" width="578" height="128" as="geometry" />
        </mxCell>
        <mxCell id="MKRzmSx__VpVy3L4rkY--2" value="On-Prem Data Center - Active-Active HA" style="whiteSpace=wrap;strokeWidth=2;" vertex="1" parent="1">
          <mxGeometry x="20" y="40" width="1737" height="1045" as="geometry" />
        </mxCell>
        <mxCell id="MKRzmSx__VpVy3L4rkY--3" value="On-Site QC Team" style="whiteSpace=wrap;strokeWidth=2;" vertex="1" parent="1">
          <mxGeometry x="367" y="372" width="482" height="128" as="geometry" />
        </mxCell>
        <mxCell id="MKRzmSx__VpVy3L4rkY--4" value="Hexagon GIS Cluster" style="whiteSpace=wrap;strokeWidth=2;" vertex="1" parent="1">
          <mxGeometry x="869" y="372" width="313" height="128" as="geometry" />
        </mxCell>
        <mxCell id="MKRzmSx__VpVy3L4rkY--5" value="Esri Cluster - Node 2" style="whiteSpace=wrap;strokeWidth=2;verticalAlign=top;" vertex="1" parent="1">
          <mxGeometry x="55" y="778" width="1092" height="153" as="geometry" />
        </mxCell>
        <mxCell id="MKRzmSx__VpVy3L4rkY--6" value="Portal for ArcGIS" style="fillColor=none;strokeColor=none;" vertex="1" overrideArrowHead="circle" parent="MKRzmSx__VpVy3L4rkY--5">
          <mxGeometry x="43" y="58" width="179" height="54" as="geometry" />
        </mxCell>
        <mxCell id="MKRzmSx__VpVy3L4rkY--7" value="ArcGIS Server &#xa;(Web GIS)" style="fillColor=none;strokeColor=none;" vertex="1" overrideArrowHead="circle" parent="MKRzmSx__VpVy3L4rkY--5">
          <mxGeometry x="272" y="58" width="246" height="54" as="geometry" />
        </mxCell>
        <mxCell id="MKRzmSx__VpVy3L4rkY--8" value="ArcGIS Data Store" style="fillColor=none;strokeColor=none;" vertex="1" overrideArrowHead="circle" parent="MKRzmSx__VpVy3L4rkY--5">
          <mxGeometry x="568" y="58" width="187" height="54" as="geometry" />
        </mxCell>
        <mxCell id="MKRzmSx__VpVy3L4rkY--9" value="ArcGIS Geodatabase &#xa;(SQL/PostgreSQL)" style="fillColor=none;strokeColor=none;" vertex="1" overrideArrowHead="circle" parent="MKRzmSx__VpVy3L4rkY--5">
          <mxGeometry x="805" y="46" width="260" height="78" as="geometry" />
        </mxCell>
        <mxCell id="MKRzmSx__VpVy3L4rkY--10" value="Esri Cluster - Node 1" style="whiteSpace=wrap;strokeWidth=2;" vertex="1" parent="1">
          <mxGeometry x="307" y="575" width="1430" height="128" as="geometry" />
        </mxCell>
        <mxCell id="MKRzmSx__VpVy3L4rkY--11" value="Field Workers" style="whiteSpace=wrap;strokeWidth=2;" vertex="1" parent="1">
          <mxGeometry x="1825" y="169" width="1032" height="128" as="geometry" />
        </mxCell>
        <mxCell id="MKRzmSx__VpVy3L4rkY--12" value="Cloud Productive Cluster" style="whiteSpace=wrap;strokeWidth=2;" vertex="1" parent="1">
          <mxGeometry x="1777" y="347" width="2158" height="178" as="geometry" />
        </mxCell>
        <mxCell id="MKRzmSx__VpVy3L4rkY--13" value="Cloud Disaster Recovery Cluster (DR)" style="whiteSpace=wrap;strokeWidth=2;" vertex="1" parent="1">
          <mxGeometry x="2369" y="753" width="1566" height="203" as="geometry" />
        </mxCell>
        <mxCell id="MKRzmSx__VpVy3L4rkY--14" value="ArcGIS Field Maps" style="fillColor=none;strokeColor=none;" vertex="1" overrideArrowHead="circle" parent="1">
          <mxGeometry x="2404" y="828" width="187" height="54" as="geometry" />
        </mxCell>
        <mxCell id="MKRzmSx__VpVy3L4rkY--15" value="Survey123" style="fillColor=none;strokeColor=none;" vertex="1" overrideArrowHead="circle" parent="1">
          <mxGeometry x="2640" y="828" width="132" height="54" as="geometry" />
        </mxCell>
        <mxCell id="MKRzmSx__VpVy3L4rkY--16" value="ArcGIS Dashboards" style="fillColor=none;strokeColor=none;" vertex="1" overrideArrowHead="circle" parent="1">
          <mxGeometry x="2823" y="828" width="192" height="54" as="geometry" />
        </mxCell>
        <mxCell id="MKRzmSx__VpVy3L4rkY--17" value="Sync to Disaster Recovery" style="fillColor=none;strokeColor=none;" vertex="1" parent="1">
          <mxGeometry x="3065" y="790" width="243" height="54" as="geometry" />
        </mxCell>
        <mxCell id="MKRzmSx__VpVy3L4rkY--18" value="ArcGIS Server (Web GIS)" style="fillColor=none;strokeColor=none;" vertex="1" overrideArrowHead="circle" parent="1">
          <mxGeometry x="3358" y="828" width="232" height="54" as="geometry" />
        </mxCell>
        <mxCell id="MKRzmSx__VpVy3L4rkY--19" value="Cloud Geodatabase (SQL/PostgreSQL)" style="fillColor=none;strokeColor=none;" vertex="1" overrideArrowHead="circle" parent="1">
          <mxGeometry x="3640" y="816" width="260" height="78" as="geometry" />
        </mxCell>
        <mxCell id="MKRzmSx__VpVy3L4rkY--20" value="ArcGIS Field Maps" style="fillColor=none;strokeColor=none;" vertex="1" parent="1">
          <mxGeometry x="1812" y="409" width="187" height="54" as="geometry" />
        </mxCell>
        <mxCell id="MKRzmSx__VpVy3L4rkY--21" value="Survey123" style="fillColor=none;strokeColor=none;" vertex="1" parent="1">
          <mxGeometry x="2218" y="409" width="132" height="54" as="geometry" />
        </mxCell>
        <mxCell id="MKRzmSx__VpVy3L4rkY--22" value="ArcGIS Dashboards" style="fillColor=none;strokeColor=none;" vertex="1" overrideArrowHead="circle" parent="1">
          <mxGeometry x="2400" y="409" width="192" height="54" as="geometry" />
        </mxCell>
        <mxCell id="MKRzmSx__VpVy3L4rkY--23" value="ArcGIS Enterprise (Cloud)" style="fillColor=none;strokeColor=none;" vertex="1" parent="1">
          <mxGeometry x="3066" y="409" width="242" height="54" as="geometry" />
        </mxCell>
        <mxCell id="MKRzmSx__VpVy3L4rkY--24" value="ArcGIS Server (Web GIS)" style="fillColor=none;strokeColor=none;" vertex="1" overrideArrowHead="circle" parent="1">
          <mxGeometry x="3358" y="409" width="232" height="54" as="geometry" />
        </mxCell>
        <mxCell id="MKRzmSx__VpVy3L4rkY--25" value="Cloud Geodatabase (SQL/PostgreSQL)" style="fillColor=none;strokeColor=none;" vertex="1" overrideArrowHead="circle" parent="1">
          <mxGeometry x="3639" y="397" width="260" height="78" as="geometry" />
        </mxCell>
        <mxCell id="MKRzmSx__VpVy3L4rkY--26" value="Mobile Workers" style="fillColor=none;strokeColor=none;" vertex="1" parent="1">
          <mxGeometry x="1925" y="206" width="169" height="54" as="geometry" />
        </mxCell>
        <mxCell id="MKRzmSx__VpVy3L4rkY--27" value="Field Devices" style="fillColor=none;strokeColor=none;" vertex="1" overrideArrowHead="circle" parent="1">
          <mxGeometry x="2144" y="206" width="154" height="54" as="geometry" />
        </mxCell>
        <mxCell id="MKRzmSx__VpVy3L4rkY--28" value="GPS Collectors" style="fillColor=none;strokeColor=none;" vertex="1" overrideArrowHead="circle" parent="1">
          <mxGeometry x="2349" y="206" width="164" height="54" as="geometry" />
        </mxCell>
        <mxCell id="MKRzmSx__VpVy3L4rkY--29" value="Field Maps/Survey123&#xa;(Offline Mode)" style="fillColor=none;strokeColor=none;" vertex="1" overrideArrowHead="circle" parent="1">
          <mxGeometry x="2563" y="194" width="260" height="78" as="geometry" />
        </mxCell>
        <mxCell id="MKRzmSx__VpVy3L4rkY--30" value="Secure Proxy (DMZ Layer)" style="fillColor=none;strokeColor=none;" vertex="1" parent="1">
          <mxGeometry x="535" y="206" width="242" height="54" as="geometry" />
        </mxCell>
        <mxCell id="MKRzmSx__VpVy3L4rkY--31" value="Sync to On-Prem Cluster" style="fillColor=none;strokeColor=none;" vertex="1" parent="1">
          <mxGeometry x="494" y="612" width="234" height="54" as="geometry" />
        </mxCell>
        <mxCell id="MKRzmSx__VpVy3L4rkY--32" value="Export Data (Shapefile/GeoJSON)" style="fillColor=none;strokeColor=none;" vertex="1" parent="1">
          <mxGeometry x="895" y="576" width="260" height="78" as="geometry" />
        </mxCell>
        <mxCell id="MKRzmSx__VpVy3L4rkY--33" value="ArcGIS Data Store" style="fillColor=none;strokeColor=none;" vertex="1" overrideArrowHead="circle" parent="1">
          <mxGeometry x="1205" y="612" width="187" height="54" as="geometry" />
        </mxCell>
        <mxCell id="MKRzmSx__VpVy3L4rkY--34" value="ArcGIS Geodatabase &#xa;(SQL/PostgreSQL)" style="fillColor=none;strokeColor=none;" vertex="1" overrideArrowHead="circle" parent="1">
          <mxGeometry x="1442" y="600" width="260" height="78" as="geometry" />
        </mxCell>
        <mxCell id="MKRzmSx__VpVy3L4rkY--35" value="Hexagon Geospatial Suite" style="fillColor=none;strokeColor=none;" vertex="1" parent="1">
          <mxGeometry x="912" y="389" width="243" height="54" as="geometry" />
        </mxCell>
        <mxCell id="MKRzmSx__VpVy3L4rkY--36" value="QC Workstations" style="fillColor=none;strokeColor=none;" vertex="1" parent="1">
          <mxGeometry x="637" y="409" width="177" height="54" as="geometry" />
        </mxCell>
        <mxCell id="MKRzmSx__VpVy3L4rkY--37" value="ArcGIS Pro for QC" style="fillColor=none;strokeColor=none;" vertex="1" parent="1">
          <mxGeometry x="402" y="409" width="185" height="54" as="geometry" />
        </mxCell>
        <mxCell id="MKRzmSx__VpVy3L4rkY--38" value="Store Imagery/Spatial Data" style="fillColor=none;strokeColor=none;" vertex="1" parent="1">
          <mxGeometry x="474" y="1006" width="255" height="54" as="geometry" />
        </mxCell>
        <mxCell id="MKRzmSx__VpVy3L4rkY--39" value="Web Adaptor (IIS) - DMZ" style="fillColor=none;strokeColor=none;" vertex="1" parent="1">
          <mxGeometry x="540" y="65" width="231" height="54" as="geometry" />
        </mxCell>
        <mxCell id="MKRzmSx__VpVy3L4rkY--40" value="External GIS Systems" style="fillColor=none;strokeColor=none;" vertex="1" parent="1">
          <mxGeometry x="3212" y="206" width="209" height="54" as="geometry" />
        </mxCell>
        <mxCell id="MKRzmSx__VpVy3L4rkY--41" value="Third-Party Data Providers" style="fillColor=none;strokeColor=none;" vertex="1" parent="1">
          <mxGeometry x="2913" y="206" width="249" height="54" as="geometry" />
        </mxCell>
        <mxCell id="MKRzmSx__VpVy3L4rkY--42" value="" style="curved=1;startArrow=circle;startFill=0;endArrow=circle;endFill=0;exitX=0.24;exitY=1;entryX=0.5;entryY=0;rounded=0;" edge="1" parent="1" source="MKRzmSx__VpVy3L4rkY--26" target="MKRzmSx__VpVy3L4rkY--20">
          <mxGeometry relative="1" as="geometry">
            <Array as="points">
              <mxPoint x="1905" y="297" />
            </Array>
          </mxGeometry>
        </mxCell>
        <mxCell id="MKRzmSx__VpVy3L4rkY--43" value="" style="curved=1;startArrow=none;endArrow=circle;endFill=0;exitX=1;exitY=0.87;entryX=0.5;entryY=0;rounded=0;" edge="1" parent="1" source="MKRzmSx__VpVy3L4rkY--26" target="MKRzmSx__VpVy3L4rkY--21">
          <mxGeometry relative="1" as="geometry">
            <Array as="points">
              <mxPoint x="2284" y="297" />
            </Array>
          </mxGeometry>
        </mxCell>
        <mxCell id="MKRzmSx__VpVy3L4rkY--44" value="" style="curved=1;startArrow=circle;startFill=0;endArrow=circle;endFill=0;exitX=0.5;exitY=1;entryX=0.72;entryY=0;rounded=0;" edge="1" parent="1" source="MKRzmSx__VpVy3L4rkY--40" target="MKRzmSx__VpVy3L4rkY--23">
          <mxGeometry relative="1" as="geometry">
            <Array as="points">
              <mxPoint x="3316" y="372" />
            </Array>
          </mxGeometry>
        </mxCell>
        <mxCell id="MKRzmSx__VpVy3L4rkY--45" value="" style="curved=1;startArrow=circle;startFill=0;endArrow=block;exitX=0.5;exitY=1;entryX=0.24;entryY=0;rounded=0;" edge="1" parent="1" source="MKRzmSx__VpVy3L4rkY--41" target="MKRzmSx__VpVy3L4rkY--23">
          <mxGeometry relative="1" as="geometry">
            <Array as="points">
              <mxPoint x="3037" y="372" />
            </Array>
          </mxGeometry>
        </mxCell>
        <mxCell id="MKRzmSx__VpVy3L4rkY--46" value="" style="curved=1;startArrow=none;endArrow=circle;endFill=0;exitX=0;exitY=0.68;entryX=0.98;entryY=0;rounded=0;" edge="1" parent="1" source="MKRzmSx__VpVy3L4rkY--23" target="MKRzmSx__VpVy3L4rkY--31">
          <mxGeometry relative="1" as="geometry">
            <Array as="points">
              <mxPoint x="2375" y="500" />
              <mxPoint x="2375" y="525" />
              <mxPoint x="875" y="550" />
              <mxPoint x="875" y="575" />
            </Array>
          </mxGeometry>
        </mxCell>
        <mxCell id="MKRzmSx__VpVy3L4rkY--47" value="" style="curved=1;startArrow=circle;startFill=0;endArrow=circle;endFill=0;exitX=0.62;exitY=1;entryX=0.5;entryY=0;rounded=0;" edge="1" parent="1" source="MKRzmSx__VpVy3L4rkY--30" target="MKRzmSx__VpVy3L4rkY--36">
          <mxGeometry relative="1" as="geometry">
            <Array as="points">
              <mxPoint x="725" y="297" />
            </Array>
          </mxGeometry>
        </mxCell>
        <mxCell id="MKRzmSx__VpVy3L4rkY--48" value="" style="curved=1;startArrow=none;endArrow=circle;endFill=0;exitX=1;exitY=0.89;entryX=0.5;entryY=0;rounded=0;" edge="1" parent="1" source="MKRzmSx__VpVy3L4rkY--30" target="MKRzmSx__VpVy3L4rkY--35">
          <mxGeometry relative="1" as="geometry">
            <Array as="points">
              <mxPoint x="1025" y="297" />
            </Array>
          </mxGeometry>
        </mxCell>
        <mxCell id="MKRzmSx__VpVy3L4rkY--49" value="" style="curved=1;startArrow=none;endArrow=block;exitX=0.5;exitY=1;entryX=0.71;entryY=0;rounded=0;" edge="1" parent="1" source="MKRzmSx__VpVy3L4rkY--36" target="MKRzmSx__VpVy3L4rkY--31">
          <mxGeometry relative="1" as="geometry">
            <Array as="points">
              <mxPoint x="725" y="575" />
            </Array>
          </mxGeometry>
        </mxCell>
        <mxCell id="MKRzmSx__VpVy3L4rkY--50" value="" style="curved=1;startArrow=circle;startFill=0;endArrow=block;exitX=0.5;exitY=1;entryX=0.29;entryY=0;rounded=0;" edge="1" parent="1" source="MKRzmSx__VpVy3L4rkY--37" target="MKRzmSx__VpVy3L4rkY--31">
          <mxGeometry relative="1" as="geometry">
            <Array as="points">
              <mxPoint x="494" y="575" />
            </Array>
          </mxGeometry>
        </mxCell>
        <mxCell id="MKRzmSx__VpVy3L4rkY--51" value="" style="curved=1;startArrow=none;endArrow=circle;endFill=0;exitX=0.5;exitY=1;entryX=0.5;entryY=0;rounded=0;" edge="1" parent="1" source="MKRzmSx__VpVy3L4rkY--35" target="MKRzmSx__VpVy3L4rkY--32">
          <mxGeometry relative="1" as="geometry">
            <Array as="points" />
          </mxGeometry>
        </mxCell>
        <mxCell id="MKRzmSx__VpVy3L4rkY--52" value="" style="curved=1;startArrow=circle;startFill=0;endArrow=block;exitX=0.5;exitY=1;entryX=0.5;entryY=0;rounded=0;" edge="1" parent="1" source="MKRzmSx__VpVy3L4rkY--39" target="MKRzmSx__VpVy3L4rkY--30">
          <mxGeometry relative="1" as="geometry">
            <Array as="points" />
          </mxGeometry>
        </mxCell>
        <mxCell id="MKRzmSx__VpVy3L4rkY--53" value="" style="curved=1;startArrow=none;endArrow=circle;endFill=0;exitX=1;exitY=0.73;entryX=0;entryY=0.37;rounded=0;" edge="1" parent="1" source="MKRzmSx__VpVy3L4rkY--31" target="MKRzmSx__VpVy3L4rkY--17">
          <mxGeometry relative="1" as="geometry">
            <Array as="points">
              <mxPoint x="1222" y="703" />
              <mxPoint x="1222" y="753" />
            </Array>
          </mxGeometry>
        </mxCell>
        <mxCell id="MKRzmSx__VpVy3L4rkY--54" value="" style="curved=1;startArrow=none;endArrow=block;exitX=0.5;exitY=1;entryX=0.5;entryY=-0.01;rounded=0;" edge="1" parent="1" source="MKRzmSx__VpVy3L4rkY--23" target="MKRzmSx__VpVy3L4rkY--17">
          <mxGeometry relative="1" as="geometry">
            <Array as="points" />
          </mxGeometry>
        </mxCell>
        <mxCell id="MKRzmSx__VpVy3L4rkY--55" value="" style="curved=1;startArrow=none;endArrow=block;rounded=0;" edge="1" parent="1" source="MKRzmSx__VpVy3L4rkY--30" target="MKRzmSx__VpVy3L4rkY--10">
          <mxGeometry relative="1" as="geometry">
            <Array as="points" />
          </mxGeometry>
        </mxCell>
        <mxCell id="MKRzmSx__VpVy3L4rkY--56" value="" style="curved=1;startArrow=none;endArrow=block;exitX=0;exitY=0.89;entryX=0.51;entryY=0;rounded=0;" edge="1" parent="1" source="MKRzmSx__VpVy3L4rkY--30" target="MKRzmSx__VpVy3L4rkY--5">
          <mxGeometry relative="1" as="geometry">
            <Array as="points">
              <mxPoint x="287" y="297" />
              <mxPoint x="287" y="703" />
              <mxPoint x="611" y="728" />
              <mxPoint x="611" y="753" />
            </Array>
          </mxGeometry>
        </mxCell>
        <mxCell id="MKRzmSx__VpVy3L4rkY--57" value="" style="curved=1;startArrow=none;endArrow=block;rounded=0;" edge="1" parent="1" source="MKRzmSx__VpVy3L4rkY--10" target="MKRzmSx__VpVy3L4rkY--5">
          <mxGeometry relative="1" as="geometry">
            <Array as="points" />
          </mxGeometry>
        </mxCell>
        <mxCell id="MKRzmSx__VpVy3L4rkY--58" value="" style="curved=1;startArrow=none;endArrow=circle;endFill=0;exitX=0.5;exitY=1;entryX=0.5;entryY=0;rounded=0;" edge="1" parent="1" source="MKRzmSx__VpVy3L4rkY--5" target="MKRzmSx__VpVy3L4rkY--38">
          <mxGeometry relative="1" as="geometry">
            <Array as="points" />
          </mxGeometry>
        </mxCell>
      </root>
    </mxGraphModel>
  </diagram>
</mxfile>
